<svg xmlns="http://www.w3.org/2000/svg" viewBox="0 0 500 500"><g id="freepik--Cow--inject-9"><g id="freepik--cow--inject-9"><path d="M56.42,206.94a18.8,18.8,0,0,0-13.6,4.1c-4.09,3.31-5.92,9.41-6.79,14.45-2.42,14.13,3.86,31.28,4.4,42.39s-3.23,18.84-13.08,21.2c6.31,1,14.37-3.62,15.49-16.49,1.09-12.53-4.26-31-3.84-40.68.19-4.6,1-9.95,4-13.64s9.73-2.45,11.33,2.19a1,1,0,0,0,.35.59c.42.26.91-.21,1.2-.62a33.49,33.49,0,0,1,8.22-8.36c3.86-2.75-4.41-4.58-6.37-4.94C57.27,207.05,56.85,207,56.42,206.94Z" style="fill:#ebebeb"></path><path d="M38.56,280.31c-1.83-1.13-5.71-.63-8.77,2.38s-5.14,6.68-11,6.51c-5.11-.14-5.92-4-5.92-4a10.58,10.58,0,0,0,1.26,6.58c2.33,4,9.15,6.86,17.09,4.63s12.21-11,9.18-14.75C39.75,282.09,38.19,281.07,38.56,280.31Z" style="fill:#263238"></path><path d="M191.26,388.33c-.46,2.31-.95,4,1.05,6.92a17.84,17.84,0,0,0,9.58,6.86c3.8.89,3.74-.14,3.67-1.46s-.32-5.55-.32-5.55,1.76,3.78,2.42,5.06,1.7.2,2.25-3,.4-5.14-1.18-9.79c-1.7-5-8.84-6.45-11.87-5.47S193.08,384.63,191.26,388.33Z" style="fill:#263238"></path><path d="M182.29,317.06l1.31,24.88c6.33-.27,9.35,3.46,8.83,8.19s-.39,6,.7,9.62,1.66,7.14.56,15.51c-.93,7.1-2.18,10-2.43,13.07,2,2.5,9.42,5.34,14,2.47s2.12-6.54.26-14.16c-2.72-11.19-2.43-14.63-1.93-19.62s-1.76-8-2-12.42,3.17-13.1,2.78-26C204.32,318.63,199.37,314.26,182.29,317.06Z" style="fill:#ebebeb"></path><path d="M205.22,390.8a5.28,5.28,0,0,0,2.28-2.56c-2.14,2.33-8.14,1.11-10.59-3.59s-1.55-7.83-.51-13.37,1.31-6.91.06-9.53c-1.52-3.22-3.93-3.29-4.32-7.72h0a17.13,17.13,0,0,0,1,5.72c1.1,3.6,1.66,7.14.56,15.51-.93,7.1-2.18,10-2.43,13.07C193.26,390.83,200.68,393.67,205.22,390.8Z" style="fill:#e0e0e0"></path><path d="M182.29,317.06l1.31,24.88a9.72,9.72,0,0,1,6.1,1.49,62.8,62.8,0,0,0,6.3-4c7.77-5.58,8.32-16.82,8.32-20.84C204.32,318.63,199.37,314.26,182.29,317.06Z" style="fill:#e0e0e0"></path><path d="M91.12,340.87c-.27,2.34-.61,4.08,1.64,6.8a17.8,17.8,0,0,0,10.15,6c3.86.55,3.71-.47,3.52-1.77l-.8-5.5s2.08,3.61,2.85,4.83,1.72,0,2-3.18,0-5.15-2-9.65c-2.12-4.81-9.36-5.66-12.29-4.42S92.61,337.6,91.12,340.87Z" style="fill:#263238"></path><path d="M95.37,226.66c-2.1,15.14,0,22.86,2.35,41.72,1.5,12.05-10.45,28.11-11.48,30-1.36,2.51.14,6,1.54,9.53s5,11.31,4.62,19.73c-.31,7.16-1.31,10.12-1.28,13.24,2.2,2.31,9.84,4.49,14.11,1.24s2.36-7-1-14.13c-8.41-18-8.45-20.31-6.83-25.06,1-2.89,1.25-3.36,4-5.62,3.93-3.26,34-9.6,32.45-22.39C133.85,274.91,112.14,222.38,95.37,226.66Z" style="fill:#ebebeb"></path><path d="M107.25,339.73c-1.33,2.32-7.31,3-9.71,0s-2-7.18-1.22-15.43S95,313.17,93.15,310.18,87.87,305.77,86,303a39.84,39.84,0,0,0,1.76,4.94c1.4,3.48,5,11.31,4.62,19.73-.31,7.16-1.31,10.12-1.28,13.24,2.2,2.31,9.84,4.49,14.11,1.24A6.36,6.36,0,0,0,107.25,339.73Z" style="fill:#e0e0e0"></path><path d="M109.2,304.16C97.58,321.35,73.32,314,67,297.93c.3-9.4,18.21-17.9,28.66-11.62S109.2,304.16,109.2,304.16Z" style="fill:#067325"></path><path d="M109.2,304.16C97.58,321.35,73.32,314,67,297.93c.3-9.4,18.21-17.9,28.66-11.62S109.2,304.16,109.2,304.16Z" style="fill:#fff;opacity:0.4"></path><path d="M55.75,360.25c-.26,2.34-.6,4.08,1.65,6.79a17.7,17.7,0,0,0,10.14,6c3.86.55,3.71-.47,3.53-1.77l-.8-5.51s2.08,3.62,2.85,4.84,1.71.05,2-3.18,0-5.16-2-9.65c-2.13-4.81-9.37-5.66-12.3-4.42S57.24,357,55.75,360.25Z" style="fill:#263238"></path><path d="M146.48,413.69c-.46,2.31-.95,4,1.05,6.92a17.74,17.74,0,0,0,9.58,6.86c3.8.89,3.74-.14,3.67-1.46s-.32-5.55-.32-5.55,1.76,3.78,2.42,5.07,1.7.19,2.25-3,.4-5.14-1.18-9.79c-1.7-5-8.84-6.45-11.87-5.47S147.66,411.08,146.48,413.69Z" style="fill:#263238"></path><path d="M203.44,260.55a11.31,11.31,0,0,0-4.06-3.9c-2.6-1.32-5.68-1-8.59-1.28a37.47,37.47,0,0,1-12-3.66c-16.75-7.61-35-19.05-48.09-32-11.22-11.07-22.19-18.19-38.5-18.4-21.14-.28-36.88,13.5-41.11,23.26-1.67,3.85-3.79,8.21-4.43,13.71-2.11,15.15.9,23.57,3.25,42.43.75,6,1.07,12,1.29,18.07.11,3.07.21,6.13.2,9.2,0,3.32.27,6.57-.9,9.78a11.12,11.12,0,0,0-1,3.74c0,2.45,2,3.93,3,5.93a47.58,47.58,0,0,1,1.9,4.81A38.76,38.76,0,0,1,57,347c-.31,7.16-1.3,10.12-1.28,13.24,2.21,2.31,9.85,4.49,14.12,1.24s2.35-7-1-14.13a96.19,96.19,0,0,1-7.31-21,10.57,10.57,0,0,1,1.62-9.46,69.5,69.5,0,0,1,7.28-10c1.17-1.34,2.3-2.78,3.55-4,1-.94,3.38-3.34,4.77-3.47,21.57-2,22.86,21.65,43.9,40.56,6.22,5.59,11.26,8.95,15.66,10.88,7,12.32,9.74,20.51,9.28,24.68-.51,4.73-.39,6,.7,9.62s1.66,7.15.56,15.51c-.93,7.1-2.18,10-2.43,13.07,2,2.5,9.42,5.34,14,2.47s2.12-6.54.27-14.16c-2.73-11.19-2.44-14.62-1.94-19.62s-1.76-8-2-12.42c-.2-3.54,3.75-8.87,5.14-18.75l.13,0c12.2-2.16,15.81-7.28,28.11-12.33,8.19-3.36,12.73-10.57,14.12-19.07.67-4.13,1.05-8.35,2-12.43,1.2-5.43,4.49-10.12,5.89-15.48,2.62-10-2.07-20.4-7.37-29.29C204.32,261.91,203.9,261.22,203.44,260.55Z" style="fill:#fafafa"></path><path d="M91.6,202.11h.61c17.4.22,28.51,8.86,37.93,18.17,12.16,12,29.78,23.73,48.33,32.16a38.07,38.07,0,0,0,12.25,3.74c.76.06,1.53.09,2.28.12,2.18.09,4.23.16,6,1.07a10.41,10.41,0,0,1,3.76,3.64c.46.67.89,1.38,1.26,2,4.78,8,9.93,18.52,7.28,28.66a45.28,45.28,0,0,1-2.8,7.2,42.64,42.64,0,0,0-3.1,8.31c-.58,2.65-1,5.39-1.32,8-.2,1.46-.4,3-.64,4.45-1.45,8.88-6.28,15.43-13.62,18.44a94.26,94.26,0,0,0-11.54,5.81c-4.88,2.78-9.1,5.18-16.41,6.47h-.12l-.59.11-.08.58a53.9,53.9,0,0,1-3.48,12.51c-1,2.6-1.77,4.65-1.67,6.41a23.11,23.11,0,0,0,1.06,5.26,17.42,17.42,0,0,1,.95,7c-.48,4.88-.84,8.41,2,19.89.38,1.56.78,3,1.14,4.19,1.52,5.29,1.9,7.22-1.05,9.09a7.75,7.75,0,0,1-4.18,1.07c-3.37,0-7-1.6-8.49-3.12a32.22,32.22,0,0,1,.77-4,83.57,83.57,0,0,0,1.62-8.72c1.08-8.18.63-11.88-.58-15.85-1.08-3.54-1.17-4.76-.67-9.3.51-4.73-2.73-13.43-9.39-25.17l-.13-.24-.25-.11c-4.59-2-9.64-5.53-15.44-10.74-8-7.15-13.06-15-17.55-21.87-6.93-10.62-12.4-19-24.44-19-.81,0-1.67,0-2.53.12-1.48.13-3.49,1.94-5.27,3.7-.9.89-1.74,1.88-2.55,2.84-.35.41-.69.82-1,1.22a70.42,70.42,0,0,0-7.37,10.15,11.38,11.38,0,0,0-1.71,10,97,97,0,0,0,7.37,21.19l.25.54c3.42,7.29,4.42,9.95,1,12.59a8.36,8.36,0,0,1-5.08,1.48,13.08,13.08,0,0,1-7.72-2.42,32.58,32.58,0,0,1,.42-4,81,81,0,0,0,.86-8.83A39.33,39.33,0,0,0,55.14,332l-.17-.49a44.82,44.82,0,0,0-1.76-4.4A13.93,13.93,0,0,0,51.89,325a6.19,6.19,0,0,1-1.59-3.51,7.43,7.43,0,0,1,.71-2.71l.28-.75a23,23,0,0,0,1-8.37c0-.56,0-1.12,0-1.69,0-3.17-.09-6.29-.2-9.23-.2-5.45-.51-11.86-1.3-18.14-.64-5.15-1.33-9.56-2-13.45-1.64-10.37-2.82-17.86-1.3-28.78a41.72,41.72,0,0,1,3.83-12.25q.27-.63.54-1.23C56,215.43,71,202.11,91.6,202.11m0-.82c-20.83,0-36.3,13.6-40.49,23.27-1.67,3.85-3.79,8.21-4.43,13.71-2.11,15.15.9,23.57,3.25,42.43.75,6,1.07,12,1.29,18.07.11,3.07.21,6.13.2,9.2,0,3.32.27,6.57-.9,9.78a11.12,11.12,0,0,0-1,3.74c0,2.45,2,3.93,3,5.93a47.58,47.58,0,0,1,1.9,4.81A38.76,38.76,0,0,1,57,347c-.31,7.16-1.3,10.12-1.28,13.24,1.4,1.47,5,2.89,8.54,2.89a9.18,9.18,0,0,0,5.58-1.65c4.27-3.26,2.35-7-1-14.13a96.19,96.19,0,0,1-7.31-21,10.57,10.57,0,0,1,1.62-9.46,69.5,69.5,0,0,1,7.28-10c1.17-1.34,2.3-2.78,3.55-4,1-.94,3.38-3.34,4.77-3.47.85-.07,1.67-.11,2.46-.11,19.24,0,21.22,22.5,41.44,40.67,6.22,5.59,11.26,8.95,15.66,10.88,7,12.32,9.74,20.51,9.28,24.68-.51,4.73-.39,6,.7,9.62s1.66,7.15.56,15.51c-.93,7.1-2.18,10-2.43,13.07,1.4,1.75,5.47,3.67,9.34,3.67a8.65,8.65,0,0,0,4.62-1.2c4.53-2.87,2.12-6.54.27-14.16-2.73-11.19-2.44-14.62-1.94-19.62s-1.76-8-2-12.42c-.2-3.54,3.75-8.87,5.14-18.75l.13,0c12.2-2.16,15.81-7.28,28.11-12.33,8.19-3.36,12.73-10.57,14.12-19.07.67-4.13,1.05-8.35,2-12.43,1.2-5.43,4.49-10.12,5.89-15.48,2.62-10-2.07-20.4-7.37-29.29-.41-.68-.83-1.37-1.29-2a11.31,11.31,0,0,0-4.06-3.9c-2.6-1.32-5.68-1-8.59-1.28a37.47,37.47,0,0,1-12-3.66c-16.75-7.61-35-19.05-48.09-32-11.22-11.07-22.19-18.19-38.5-18.4Z" style="fill:#e6e6e6"></path><path d="M62.17,359.07c-2.42-3.05-2-7.19-1.22-15.43s-1.34-11.1-3.16-14.08c-1.44-2.36-4.28-3-6.44-4.64-.38-.28-.74-.6-1.11-.9.67,1.16,1.64,2.19,2.23,3.4a47.58,47.58,0,0,1,1.9,4.81A38.76,38.76,0,0,1,57,347c-.31,7.16-1.3,10.12-1.28,13.24,2.21,2.31,9.85,4.49,14.12,1.24a7,7,0,0,0,1.55-1.59C68.27,361.42,64.34,361.81,62.17,359.07Z" style="fill:#f0f0f0"></path><path d="M155.47,285.84a4.79,4.79,0,0,1,1.38,2.28c.16.77,0,1.57.08,2.36.23,2.12,2.24,3.56,4.15,4.52s4,1.86,5.07,3.74c1.22,2.22.36,5.1-1.27,7s-3.89,3.22-6,4.68a19.66,19.66,0,0,0-7.19,8.11c-.62,1.49-1,3.09-1.69,4.53a9.32,9.32,0,0,1-6,4.86,8.49,8.49,0,0,1-7.47-1.82c-2-1.75-2.94-4.33-4-6.74-1.33-3-3-6.06-5.75-7.92-1.91-1.28-4.36-2-5.51-4s-.41-4.94,1.15-6.85,3.73-3.2,5.67-4.72,3.78-3.46,4.16-5.89c.22-1.41-.07-2.87.25-4.26C134.59,276.42,151.32,281.47,155.47,285.84Z" style="fill:#37474f"></path><path d="M143,257.86c1.17,1.08,2.28,2.65,1.75,4.15a3.8,3.8,0,0,1-2.63,2.07,17.72,17.72,0,0,0-3.32,1c-3.25,1.74-3.48,6.72-6.62,8.64-2.17,1.32-5.09.68-7.13-.82a8.15,8.15,0,0,1-3.3-5,5.92,5.92,0,0,1,1.92-5.56c1-.8,2.24-1.21,3.22-2,1.18-1,1.84-2.44,2.83-3.62C133.66,252,139.22,254.41,143,257.86Z" style="fill:#37474f"></path><path d="M102.53,202.49a6.58,6.58,0,0,0-1,.83,5.37,5.37,0,0,0-1.49,5.1c.37,1.25,1.3,2.36,1.28,3.67,0,1.84-1.86,3-2.84,4.61a5.5,5.5,0,0,0,1,6.82,9.45,9.45,0,0,0,5.26,1.87,36.5,36.5,0,0,0,7.75.05c3.82-.38,8.1-1.26,11.19,1a20.54,20.54,0,0,1,2.74,2.85c4.54,5,13.75,5.65,20.17,3.69h0a136,136,0,0,1-15.87-13.3C122,211.13,113.5,205,102.53,202.49Z" style="fill:#37474f"></path><path d="M75.15,237.05a23.15,23.15,0,0,1,13.56.63,12.83,12.83,0,0,1,5.6,3.59c3.37,4,2.06,10.9-2.32,13.82-2.6,1.74-6,2.26-8.25,4.39-1,.93-1.73,2.11-2.72,3-4.49,4.23-11.83,2-16.48,6a3.33,3.33,0,0,1-2,1.14c-2.23,0-4.73-5.12-5.74-6.75A17.16,17.16,0,0,1,55,259.26c-1.37-4.33.92-9,.24-13.52-.28-1.79-1-3.49-1.32-5.28-.81-4.84,1.23-10.6,5.56-13.12,6.9-4,15.36,2.3,15.24,9.83Z" style="fill:#37474f"></path><path d="M71.89,275.86c-.28.56-.92.87-1.27,1.4-.74,1.11,0,2.68-.55,3.89a3.13,3.13,0,0,1-2.61,1.55,27.65,27.65,0,0,0-3.16.23,2.92,2.92,0,0,1-1.77.13,2,2,0,0,1-.92-1.31,3.23,3.23,0,0,1,.35-3.21c.6-.61,1.53-.75,2.19-1.28,1.53-1.23,2.52-3.53,4.63-4C70.16,272.89,72.8,274.07,71.89,275.86Z" style="fill:#37474f"></path><path d="M212.1,291.88a23.72,23.72,0,0,0,.6-3.31c-.25-.26-.51-.5-.77-.74a28.76,28.76,0,0,0-6.41-3.88,6.46,6.46,0,0,0-3.88-1,5.36,5.36,0,0,0-2.66,1.64c-2.68,2.71-4.18,6.34-6.18,9.59-5.11,8.26-12.92,15.66-19.37,22.87-7.61,8.51-14.89,22.92-11.63,34.74,0-.2.07-.4.1-.61l.13,0c12.2-2.16,15.81-7.28,28.11-12.33,8.19-3.36,12.73-10.57,14.12-19.07.67-4.13,1.05-8.35,2-12.43C207.41,301.93,210.7,297.24,212.1,291.88Z" style="fill:#f0f0f0"></path><path d="M204.73,262.59c-.41-.68-.83-1.37-1.29-2a11.31,11.31,0,0,0-4.06-3.9c-2.6-1.32-5.68-1-8.59-1.28a37.47,37.47,0,0,1-12-3.66c-3-1.36-6-2.85-9.07-4.44a19.69,19.69,0,0,0-2.4,2.07c-3.28,3.37-5.16,8.71-2.94,12.85s7.85,5.64,11,9.32c2.3,2.68,3.08,6.3,4.49,9.53a16.2,16.2,0,0,0,.78,1.56c2.66,4.6,6.76,5.46,12.22,4.52,5.19-.9,10.15-2.92,15.36-3.65a3,3,0,0,0,1.29-.37,2.93,2.93,0,0,0,.89-1.24c.5-1.06,1-2.13,1.48-3.2A61.52,61.52,0,0,0,204.73,262.59Z" style="fill:#37474f"></path><path d="M88.46,296.29c-1-4,1.57-7.91-.65-13.25.19,5.77-4.49,14-9,16.33a19.61,19.61,0,0,1,13.4,3.13h0A12.53,12.53,0,0,1,88.46,296.29Z" style="fill:#f0f0f0"></path><path d="M160.44,416.16a5.24,5.24,0,0,0,2.28-2.56c-2.14,2.33-8.14,1.11-10.59-3.59s-1.55-7.83-.51-13.37,1.31-6.91.07-9.52c-1.53-3.23-3.93-3.3-4.33-7.73h0a17.09,17.09,0,0,0,1,5.72c1.1,3.6,1.66,7.15.56,15.51-.93,7.1-2.18,10-2.43,13.07C148.48,416.19,155.9,419,160.44,416.16Z" style="fill:#f0f0f0"></path><path d="M132.86,347.82a39.12,39.12,0,0,0,5.51,3c-5.87-10.08-7.34-14.11-8.92-19.12C129.44,336.52,131.12,343.12,132.86,347.82Z" style="fill:#f0f0f0"></path><path d="M237.71,228c3.13-.69,3.24,3.74,3.13,5.75a23,23,0,0,1-1.66,7.94,17.29,17.29,0,0,1-5.09,6.11,35.36,35.36,0,0,0-3.4,2.67,3.91,3.91,0,0,0-1.33,2.93c0-.12-2.4-2.28-2.76-2.7a8.8,8.8,0,0,1-.86-1,7.73,7.73,0,0,1-1.32-5.46C225,240.21,226.72,234.14,237.71,228Z" style="fill:#067325"></path><path d="M237.71,228c3.13-.69,3.24,3.74,3.13,5.75a23,23,0,0,1-1.66,7.94,17.29,17.29,0,0,1-5.09,6.11,35.36,35.36,0,0,0-3.4,2.67,3.91,3.91,0,0,0-1.33,2.93c0-.12-2.4-2.28-2.76-2.7a8.8,8.8,0,0,1-.86-1,7.73,7.73,0,0,1-1.32-5.46C225,240.21,226.72,234.14,237.71,228Z" style="fill:#fff;opacity:0.6000000000000001"></path><path d="M235.81,229.09c-3.5,5.14-6.26,10.3-5,15.71a11.76,11.76,0,0,0,3.41-4.28c.06,2.4-1.47,4.51-3,6.38-1.29,1.61-2.66,3.34-3.08,5.32-.67-.63-1.41-1.33-1.6-1.55a8.8,8.8,0,0,1-.86-1,7.73,7.73,0,0,1-1.32-5.46C225,240.45,226.52,234.86,235.81,229.09Z" style="fill:#067325;opacity:0.2"></path><path d="M229.08,239.06c.14-.34.29-.67.46-1A28.39,28.39,0,0,1,237.71,228a28.62,28.62,0,0,0-10.19,5.72c-2.38,2.08-6.2,5.47-5.62,9,.52,3.16,2.64,5.68,4.7,8A34.51,34.51,0,0,1,229.08,239.06Z" style="fill:#e0e0e0"></path><path d="M214.76,235.54c5.54-4.68,3.84-12.58,5.88-11.76s6.5,7.12,4.38,15.21C222.77,244.64,213,240.3,214.76,235.54Z" style="fill:#f5f5f5"></path><path d="M206.84,238.78c-4.77.59-11.43-.39-14.67,4-1.89,2.58-2.16,5.41-1.94,8.42.45,6-1.13,11.26-2.7,17a21,21,0,0,0,.2,12.57c4.13,11.64,18.16,9.92,26.45,16.91,3.42,2.88,9.2,8.62,15,10s11.76-1.38,14.76-4c3.87-3.32,4.17-9.15,4.45-11.68.36-3.31-1-6.46-4.38-7.54-3.06-3.05-8.65-11.57-9.91-16.42s-.62-16.35-5.11-23.83c-4-6.68-8.27-7.71-11.51-7.71S211,238.26,206.84,238.78Z" style="fill:#fafafa"></path><path d="M217.44,237.47c2.75,0,6.85.76,10.76,7.29,3,5,3.62,11.76,4.14,17.23a46.85,46.85,0,0,0,.87,6.36c1.34,5.16,7.07,13.76,10.14,16.83l.15.15.21.07c2.71.86,4.12,3.33,3.77,6.61,0,.18,0,.39-.07.61-.26,2.67-.76,7.65-4.08,10.49a18.28,18.28,0,0,1-11,4.13,12.64,12.64,0,0,1-3-.35c-4.66-1.16-9.39-5.31-12.84-8.34-.64-.56-1.23-1.08-1.77-1.53-3.35-2.82-7.56-4.26-11.64-5.66-6.26-2.14-12.17-4.16-14.55-10.87a20,20,0,0,1-.18-12.05l.29-1c1.48-5.37,2.88-10.44,2.44-16.23-.25-3.45.28-5.8,1.78-7.85,2.24-3.07,6.42-3.25,10.46-3.43,1.27-.06,2.47-.11,3.61-.25a36.34,36.34,0,0,0,5.32-1.19,19.91,19.91,0,0,1,5.17-1m0-.87c-3.23,0-6.45,1.66-10.6,2.18-4.77.59-11.43-.39-14.67,4-1.89,2.58-2.16,5.41-1.94,8.42.45,6-1.13,11.26-2.7,17a21.13,21.13,0,0,0,.19,12.57c4.14,11.64,18.17,9.92,26.46,16.91,3.42,2.88,9.2,8.62,15,10a13.35,13.35,0,0,0,3.18.38,19,19,0,0,0,11.58-4.33c3.87-3.32,4.17-9.15,4.45-11.68.36-3.31-1-6.46-4.38-7.54-3.06-3.05-8.65-11.57-9.91-16.42s-.62-16.35-5.11-23.83c-4-6.68-8.27-7.71-11.51-7.71Z" style="fill:#e6e6e6"></path><path d="M232.6,291.25c-3.33.12-8.31,3.06-6.56,8.3-1.67-.79-1.72-3.7-1.26-5.42.81-3,2.1-2.76,0-7s-7-14.72-7-14.72,6.17,10,8.22,13.22C229.05,290.41,232.05,289.34,232.6,291.25Z" style="fill:#e0e0e0"></path><path d="M229.14,307.73c5.69,1.41,11.76-1.38,14.76-4,3.87-3.32,4.17-9.15,4.45-11.68.36-3.31-1-6.46-4.38-7.54a37.13,37.13,0,0,1-3.95-5,19,19,0,0,0-2,.06c-5,.46-12.18,3.63-15.29,7.53-2.76,3.48-3.12,6.37-3.85,10.75-.13.77-.34,2.72-.37,3.5C221.62,304,225.38,306.81,229.14,307.73Z" style="fill:#067325"></path><path d="M229.14,307.73c5.69,1.41,11.76-1.38,14.76-4,3.87-3.32,4.17-9.15,4.45-11.68.36-3.31-1-6.46-4.38-7.54a37.13,37.13,0,0,1-3.95-5,19,19,0,0,0-2,.06c-5,.46-12.18,3.63-15.29,7.53-2.76,3.48-3.12,6.37-3.85,10.75-.13.77-.34,2.72-.37,3.5C221.62,304,225.38,306.81,229.14,307.73Z" style="fill:#fff;opacity:0.5"></path><path d="M245.56,300.5a8.5,8.5,0,0,1-3.13.95,13.37,13.37,0,0,0-3.21.73,14,14,0,0,0-2.39,1.48,7.77,7.77,0,0,1-2.4.95c-2.88.5-5.62.18-7.87-2a5.69,5.69,0,0,0,3.72,2.73,10.89,10.89,0,0,0,6.42-.22c1.07-.46,2-1.08,3-1.54a7.75,7.75,0,0,1,2.15-.47,6,6,0,0,0,4.41-2.41,11.59,11.59,0,0,0,.69-1.53A5.12,5.12,0,0,1,245.56,300.5Z" style="fill:#067325;opacity:0.30000000000000004"></path><path d="M234.07,296.69a2.17,2.17,0,0,1-.11,2.16c-1.09,1.32-3,.61-3.68-.75-.45-1-.29-2.12-.67-3.12a6.35,6.35,0,0,0-2.17-2.47c-.1-.08-.21-.23-.12-.33a.21.21,0,0,1,.19,0,6.57,6.57,0,0,1,3.06.79,8.17,8.17,0,0,1,3.27,3.27C233.92,296.35,234,296.52,234.07,296.69Z" style="fill:#455a64"></path><path d="M243.62,292.23c0,.79.67,3.25,2,2.21.93-.74.29-2.47,0-3.35a5.52,5.52,0,0,1-.26-2.76c.06-.4.09-1.48-.49-.65a7.64,7.64,0,0,0-1.17,3.88C243.63,291.78,243.62,292,243.62,292.23Z" style="fill:#455a64"></path><path d="M209.73,266.22a8.78,8.78,0,0,0-3.31-.79,6.36,6.36,0,0,0-1.9.18,3.84,3.84,0,0,0-1.48.71c-.07.06-.13.29,0,.28a13.4,13.4,0,0,1,1.88,0,16.74,16.74,0,0,1,1.92.16,7.1,7.1,0,0,1,2.51.7,9,9,0,0,1,2.24,1.63c1,.85,1.12,1,1.84,1.62.05.05.12-.09.12-.13C213.26,268.69,211.37,267,209.73,266.22Z" style="fill:#263238"></path><path d="M210.32,269a2.65,2.65,0,1,1-2.65-2.65A2.65,2.65,0,0,1,210.32,269Z" style="fill:#263238"></path><path d="M199.53,238.62c-6.64-2.92-7.25-11-9-9.61s-4.22,8.66.1,15.82C194.42,249.62,202.54,242.7,199.53,238.62Z" style="fill:#f5f5f5"></path><path d="M169.6,237.12c-3.56.84-1.49,5.45-.39,7.47a26,26,0,0,0,5.62,7.36,19.76,19.76,0,0,0,8.25,3.79,42.92,42.92,0,0,1,4.81,1.07,4.51,4.51,0,0,1,2.82,2.37c-.06-.12,1.35-3.53,1.51-4.14a9.27,9.27,0,0,0,.37-1.49,8.81,8.81,0,0,0-1.32-6.28C188.74,243.46,184,238.07,169.6,237.12Z" style="fill:#067325"></path><path d="M169.6,237.12c-3.56.84-1.49,5.45-.39,7.47a26,26,0,0,0,5.62,7.36,19.76,19.76,0,0,0,8.25,3.79,42.92,42.92,0,0,1,4.81,1.07,4.51,4.51,0,0,1,2.82,2.37c-.06-.12,1.35-3.53,1.51-4.14a9.27,9.27,0,0,0,.37-1.49,8.81,8.81,0,0,0-1.32-6.28C188.74,243.46,184,238.07,169.6,237.12Z" style="fill:#fff;opacity:0.6000000000000001"></path><path d="M172.11,237.34c6.13,3.58,11.52,7.54,12.87,13.74a13.29,13.29,0,0,1-5.62-2.73c1.11,2.5,3.73,3.92,6.19,5.11,2.12,1,4.37,2.13,5.79,4,.37-1,.8-2.06.88-2.38a9.27,9.27,0,0,0,.37-1.49,8.81,8.81,0,0,0-1.32-6.28C188.89,243.7,184.52,238.72,172.11,237.34Z" style="fill:#067325;opacity:0.2"></path><path d="M184,244.3c-.31-.27-.63-.54-1-.8a32.51,32.51,0,0,0-13.39-6.38,32.68,32.68,0,0,1,13.31.89c3.47,1,9.08,2.58,10.22,6.51,1,3.51.09,7.14-.91,10.52A39.38,39.38,0,0,0,184,244.3Z" style="fill:#e0e0e0"></path><path d="M202.43,249a1.43,1.43,0,0,0,1.61.18c.48-.3.68-.93,1.17-1.21a6.53,6.53,0,0,0,4.6,3.53,4.22,4.22,0,0,0,4.67-2.87,7.14,7.14,0,0,0,3.86,1.2,4.21,4.21,0,0,0,3.48-1.83c.94-1.51.59-3.45.21-5.19,1,.51,2.25-.58,2.28-1.72a4.3,4.3,0,0,0-1.49-2.94c-3.32-3.45-8.16-4.42-12.75-4.69-4.11-.23-9.88.68-13,3.7a9,9,0,0,0,1.82,1.17,10,10,0,0,1,1.4,3.4,54.8,54.8,0,0,0,1.15,5.73,3.36,3.36,0,0,0,.92,1.51Z" style="fill:#067325"></path><path d="M202.47,249a1.47,1.47,0,0,0,1.61.18c.48-.3.68-.93,1.17-1.21a6.51,6.51,0,0,0,4.6,3.53,4.22,4.22,0,0,0,4.67-2.87,7.14,7.14,0,0,0,3.86,1.2,4.21,4.21,0,0,0,3.48-1.83c.94-1.51.59-3.45.21-5.19,1,.51,2.25-.59,2.28-1.72a4.34,4.34,0,0,0-1.49-3c-3.32-3.44-8.16-4.42-12.75-4.68-4.11-.23-9.88.68-13,3.7a9.46,9.46,0,0,0,1.82,1.17,10.05,10.05,0,0,1,1.4,3.39,52,52,0,0,0,1.15,5.74,3.24,3.24,0,0,0,.92,1.5Z" style="fill:#fff;opacity:0.6000000000000001"></path><path d="M209.81,250.63c-1.61-1-2.35-2.86-3-4.62a4.29,4.29,0,0,1-2.8.59,1.29,1.29,0,0,1-.91-.45,1.45,1.45,0,0,1-.1-1.07,24.13,24.13,0,0,0,.58-4,5,5,0,0,0-1.31-3.65c-.78-.74-2-1.31-2.15-2.29a10.48,10.48,0,0,0-3,2,9.46,9.46,0,0,0,1.82,1.17,10.05,10.05,0,0,1,1.4,3.39,52,52,0,0,0,1.15,5.74,3.24,3.24,0,0,0,.92,1.5l0,0a1.47,1.47,0,0,0,1.61.18c.48-.3.68-.93,1.17-1.21a6.51,6.51,0,0,0,4.6,3.53,4.49,4.49,0,0,0,2.45-.38A4.08,4.08,0,0,1,209.81,250.63Z" style="fill:#067325;opacity:0.2"></path></g></g></svg>
