<svg xmlns="http://www.w3.org/2000/svg" viewBox="0 0 750 500"><g id="freepik--Plants--inject-10"><path d="M688.53,209.8a6.21,6.21,0,0,1,3.19,3.62,11,11,0,0,1,.43,4.91c-.36,3.18-2.17,6.39-4.12,8.93-2.68-2.34-3.29-6.42-3.48-8.5-.29-3.31,1.2-9.45,4-9" style="fill:#455a64"></path><path d="M691.14,232.51a5.28,5.28,0,0,1,1.7-5A7,7,0,0,1,698,225.9a3,3,0,0,1,2.26,1,2.27,2.27,0,0,1,0,2.28,4.61,4.61,0,0,1-1.68,1.66c-2.33,1.46-4.84,2.44-7.47,1.65" style="fill:#455a64"></path><path d="M687.71,242.27a3.42,3.42,0,0,1,.09-.66c.09-.46.2-1.05.33-1.76A18.26,18.26,0,0,1,690,234.2a11.3,11.3,0,0,1,4-4.3,7.53,7.53,0,0,1,1.65-.73,3.28,3.28,0,0,1,.48-.12.72.72,0,0,1,.17,0,13.26,13.26,0,0,0-2.21,1,11.67,11.67,0,0,0-3.94,4.28,20.08,20.08,0,0,0-1.86,5.56c-.16.74-.29,1.34-.4,1.75A4.7,4.7,0,0,1,687.71,242.27Z" style="fill:#263238"></path><path d="M687.81,214.58a1.11,1.11,0,0,1,0,.29c0,.21,0,.48,0,.82,0,.71.08,1.74.12,3,.09,2.55.15,6.08.13,10s-.11,7.42-.21,10c-.06,1.28-.11,2.31-.15,3,0,.34,0,.61-.06.82a1.11,1.11,0,0,1,0,.29,1.29,1.29,0,0,1,0-.29c0-.21,0-.49,0-.82,0-.74,0-1.77.07-3,.06-2.55.13-6.07.15-10s0-7.41-.06-10c0-1.26,0-2.28-.05-3v-.82A1.29,1.29,0,0,1,687.81,214.58Z" style="fill:#263238"></path><path d="M686.51,234.45a12.28,12.28,0,0,0-6.72-9c-.89-.43-2.06-.71-2.8-.05s-.57,1.87-.21,2.79a10.5,10.5,0,0,0,9.67,6.53" style="fill:#455a64"></path><path d="M680.22,228.45a4.14,4.14,0,0,1,.57.25c.18.09.4.19.65.34a8.26,8.26,0,0,1,.81.52,8.76,8.76,0,0,1,.94.7,13.3,13.3,0,0,1,1,.9,14.7,14.7,0,0,1,1.89,2.44,12.58,12.58,0,0,1,1.56,4.12,11.42,11.42,0,0,1,.16,1.16,8.45,8.45,0,0,1,0,1,4.2,4.2,0,0,1,0,.73,2.83,2.83,0,0,1-.07.61s0-.88-.11-2.29a10.83,10.83,0,0,0-.19-1.14,12.1,12.1,0,0,0-.33-1.28,13.6,13.6,0,0,0-1.24-2.76,14.29,14.29,0,0,0-1.85-2.41,13,13,0,0,0-1-.9c-.31-.28-.63-.51-.91-.72C681,228.87,680.2,228.5,680.22,228.45Z" style="fill:#263238"></path><path d="M101.18,152.4a6.22,6.22,0,0,1,3.2,3.62,10.86,10.86,0,0,1,.42,4.91c-.36,3.18-2.17,6.39-4.12,8.93-2.67-2.34-3.29-6.42-3.47-8.5-.29-3.31,1.19-9.45,4-9" style="fill:#455a64"></path><path d="M103.8,175.11a5.26,5.26,0,0,1,1.7-5,7,7,0,0,1,5.15-1.61,3,3,0,0,1,2.26,1,2.24,2.24,0,0,1,0,2.28,4.49,4.49,0,0,1-1.69,1.66c-2.32,1.46-4.84,2.44-7.46,1.65" style="fill:#455a64"></path><path d="M100.36,184.87a4.2,4.2,0,0,1,.1-.66c.08-.46.19-1.05.32-1.76a18.59,18.59,0,0,1,1.83-5.65,11.3,11.3,0,0,1,4-4.3,7.82,7.82,0,0,1,1.65-.73,3.22,3.22,0,0,1,.47-.12.72.72,0,0,1,.17,0,13.7,13.7,0,0,0-2.21,1,11.57,11.57,0,0,0-3.93,4.28,19.81,19.81,0,0,0-1.87,5.56c-.16.74-.29,1.34-.39,1.75A2.69,2.69,0,0,1,100.36,184.87Z" style="fill:#263238"></path><path d="M100.46,157.18a1.36,1.36,0,0,1,0,.29c0,.21,0,.48,0,.82,0,.71.08,1.74.12,3,.08,2.55.14,6.08.13,10s-.12,7.42-.22,10c0,1.28-.1,2.31-.15,3l-.05.82a1.36,1.36,0,0,1,0,.29,1.29,1.29,0,0,1,0-.29c0-.21,0-.49,0-.82,0-.74,0-1.77.08-3,.06-2.55.13-6.07.15-10s0-7.41-.07-10c0-1.25,0-2.28,0-3v-.82C100.45,157.28,100.46,157.18,100.46,157.18Z" style="fill:#263238"></path><path d="M99.16,177.05a12.28,12.28,0,0,0-6.72-9c-.89-.43-2.06-.71-2.8,0s-.57,1.87-.21,2.79a10.5,10.5,0,0,0,9.67,6.53" style="fill:#455a64"></path><path d="M92.88,171.05a4.14,4.14,0,0,1,.57.25,7,7,0,0,1,.64.34,9.69,9.69,0,0,1,.82.52,8.7,8.7,0,0,1,.93.7,10.3,10.3,0,0,1,1,.91A12.72,12.72,0,0,1,100,179a10.67,10.67,0,0,1,.31,1.31,9.15,9.15,0,0,1,.16,1.16,8.75,8.75,0,0,1,0,1c0,.28,0,.53,0,.73a3.73,3.73,0,0,1-.07.61c-.06,0,0-.88-.12-2.29a11.27,11.27,0,0,0-.19-1.14,12.1,12.1,0,0,0-.33-1.28,13.6,13.6,0,0,0-1.24-2.76,14.26,14.26,0,0,0-1.84-2.41,13.11,13.11,0,0,0-1-.9,10.56,10.56,0,0,0-.91-.72C93.66,171.47,92.86,171.1,92.88,171.05Z" style="fill:#263238"></path><path d="M456.19,152.4a6.18,6.18,0,0,1,3.19,3.62,10.87,10.87,0,0,1,.43,4.91c-.36,3.18-2.17,6.39-4.12,8.93-2.68-2.34-3.29-6.42-3.47-8.5-.29-3.31,1.19-9.45,4-9" style="fill:#455a64"></path><path d="M458.81,175.11a5.26,5.26,0,0,1,1.7-5,7,7,0,0,1,5.15-1.61,3,3,0,0,1,2.26,1,2.24,2.24,0,0,1,0,2.28,4.56,4.56,0,0,1-1.69,1.66c-2.32,1.46-4.84,2.44-7.46,1.65" style="fill:#455a64"></path><path d="M455.37,184.87a4.2,4.2,0,0,1,.1-.66c.08-.46.19-1.05.32-1.76a18.59,18.59,0,0,1,1.83-5.65,11.3,11.3,0,0,1,4.05-4.3,7.82,7.82,0,0,1,1.65-.73,2.93,2.93,0,0,1,.47-.12.72.72,0,0,1,.17,0,13.26,13.26,0,0,0-2.21,1,11.57,11.57,0,0,0-3.93,4.28,19.81,19.81,0,0,0-1.87,5.56c-.16.74-.29,1.34-.39,1.75A3.44,3.44,0,0,1,455.37,184.87Z" style="fill:#263238"></path><path d="M455.47,157.18a1.36,1.36,0,0,1,0,.29c0,.21,0,.48,0,.82,0,.71.08,1.74.13,3,.08,2.55.14,6.08.13,10s-.12,7.42-.22,10c0,1.28-.1,2.31-.15,3,0,.34,0,.61-.05.82a1.36,1.36,0,0,1,0,.29,1.29,1.29,0,0,1,0-.29c0-.21,0-.49,0-.82,0-.74,0-1.77.08-3,.06-2.55.13-6.07.14-10s0-7.41-.06-10c0-1.25,0-2.28-.05-3v-.82C455.46,157.28,455.47,157.18,455.47,157.18Z" style="fill:#263238"></path><path d="M454.17,177.05a12.28,12.28,0,0,0-6.72-9c-.89-.43-2.06-.71-2.8,0s-.57,1.87-.21,2.79a10.5,10.5,0,0,0,9.67,6.53" style="fill:#455a64"></path><path d="M447.89,171.05a4.89,4.89,0,0,1,.57.25,7,7,0,0,1,.64.34,9.69,9.69,0,0,1,.82.52,9.83,9.83,0,0,1,.93.7,10.3,10.3,0,0,1,1,.91A12.72,12.72,0,0,1,455,179a12.88,12.88,0,0,1,.31,1.31,9.15,9.15,0,0,1,.16,1.16c.05.36,0,.69.05,1s0,.53,0,.73a3.73,3.73,0,0,1-.07.61c-.06,0,0-.88-.12-2.29a11.27,11.27,0,0,0-.19-1.14,12.1,12.1,0,0,0-.33-1.28,13.6,13.6,0,0,0-1.24-2.76,13.78,13.78,0,0,0-1.85-2.41,11.3,11.3,0,0,0-1-.9c-.31-.28-.63-.51-.91-.72C448.67,171.47,447.86,171.1,447.89,171.05Z" style="fill:#263238"></path><path d="M602.52,307.21a12,12,0,0,1-2.53-3.87,12.11,12.11,0,0,1-1.36-4.41c.15,0,.76,1.92,1.84,4.19S602.64,307.12,602.52,307.21Z" style="fill:#263238"></path><path d="M604.81,306.83a57.66,57.66,0,0,1-1.79-11,59.85,59.85,0,0,1,1.79,11Z" style="fill:#263238"></path><path d="M611.43,295.9c.14.07-.94,2.32-1.73,5.26s-1,5.41-1.2,5.4a19.43,19.43,0,0,1,2.93-10.66Z" style="fill:#263238"></path><path d="M333.6,403.71a16.56,16.56,0,0,1-3.89-8.28c.15,0,.76,1.92,1.83,4.19S333.72,403.62,333.6,403.71Z" style="fill:#263238"></path><path d="M335.88,403.33a59.85,59.85,0,0,1-1.79-11,57.66,57.66,0,0,1,1.79,11Z" style="fill:#263238"></path><path d="M342.51,392.4c.14.07-.94,2.32-1.74,5.26s-1,5.41-1.19,5.4a19.43,19.43,0,0,1,2.93-10.66Z" style="fill:#263238"></path><path d="M455.33,463.15a47.76,47.76,0,0,1-3.75-5.8,45.16,45.16,0,0,1-3.3-6.06,46.18,46.18,0,0,1,3.75,5.79A44.22,44.22,0,0,1,455.33,463.15Z" style="fill:#263238"></path><path d="M458.16,446.74c.17,0-.44,3.67-.25,8.19s1,8.12.87,8.15a9.22,9.22,0,0,1-.68-2.32,34.21,34.21,0,0,1-.44-11.65A9.47,9.47,0,0,1,458.16,446.74Z" style="fill:#263238"></path><path d="M467.29,448.13a10.53,10.53,0,0,1-.37,2.2c-.28,1.35-.66,3.21-1,5.27s-.68,3.94-.9,5.29a9.89,9.89,0,0,1-.45,2.2,9.41,9.41,0,0,1,.08-2.24c.13-1.38.38-3.27.76-5.34s.82-3.93,1.19-5.26A8.32,8.32,0,0,1,467.29,448.13Z" style="fill:#263238"></path><path d="M436.46,249a45.09,45.09,0,0,1-3.75-5.8,47.47,47.47,0,0,1-3.31-6.06,46.18,46.18,0,0,1,3.75,5.79A46.42,46.42,0,0,1,436.46,249Z" style="fill:#263238"></path><path d="M439.29,232.6c.16,0-.45,3.67-.26,8.19s1,8.12.88,8.15a8.74,8.74,0,0,1-.68-2.32,34.56,34.56,0,0,1-.45-11.65A8.54,8.54,0,0,1,439.29,232.6Z" style="fill:#263238"></path><path d="M448.41,234a10.56,10.56,0,0,1-.37,2.21c-.27,1.35-.66,3.21-1,5.27s-.68,3.93-.9,5.29a10.7,10.7,0,0,1-.44,2.19,8.7,8.7,0,0,1,.08-2.23c.12-1.38.37-3.27.75-5.35s.83-3.93,1.2-5.26A9,9,0,0,1,448.41,234Z" style="fill:#263238"></path><path d="M705.45,437.84a45.09,45.09,0,0,1-3.75-5.8,47.47,47.47,0,0,1-3.31-6.06,43.67,43.67,0,0,1,3.75,5.79A46.42,46.42,0,0,1,705.45,437.84Z" style="fill:#263238"></path><path d="M708.28,421.43c.16,0-.45,3.67-.26,8.19s1,8.12.88,8.15a9.22,9.22,0,0,1-.68-2.32,34.56,34.56,0,0,1-.45-11.65A8.54,8.54,0,0,1,708.28,421.43Z" style="fill:#263238"></path><path d="M717.4,422.81A10.88,10.88,0,0,1,717,425c-.28,1.35-.67,3.21-1,5.27s-.68,3.93-.9,5.29a10.7,10.7,0,0,1-.44,2.19,8.7,8.7,0,0,1,.08-2.23c.12-1.38.37-3.27.75-5.35s.83-3.93,1.2-5.26A9,9,0,0,1,717.4,422.81Z" style="fill:#263238"></path><path d="M267.8,285a34.69,34.69,0,0,1-3.37-5.06,36.13,36.13,0,0,1-2.92-5.34,35.44,35.44,0,0,1,3.37,5.07A36.93,36.93,0,0,1,267.8,285Z" style="fill:#263238"></path><path d="M270.52,283.8a33.57,33.57,0,0,1-2.12-5.54,33.21,33.21,0,0,1-1.63-5.7,32.79,32.79,0,0,1,2.12,5.53A34.3,34.3,0,0,1,270.52,283.8Z" style="fill:#263238"></path><path d="M272.85,284.07a23,23,0,0,1-.1-5.94,22.18,22.18,0,0,1,1-5.87c.15,0-.21,2.65-.45,5.91S273,284.07,272.85,284.07Z" style="fill:#263238"></path><path d="M698.58,300.91a70.6,70.6,0,0,1-6.29-10.41,36.92,36.92,0,0,1,3.37,5.07A37.3,37.3,0,0,1,698.58,300.91Z" style="fill:#263238"></path><path d="M701.3,299.67a32.79,32.79,0,0,1-2.12-5.53,33.17,33.17,0,0,1-1.63-5.71,33.57,33.57,0,0,1,2.12,5.54A34.35,34.35,0,0,1,701.3,299.67Z" style="fill:#263238"></path><path d="M703.63,300a22.56,22.56,0,0,1-.1-5.95,22.16,22.16,0,0,1,1-5.86c.14,0-.21,2.65-.45,5.9S703.78,300,703.63,300Z" style="fill:#263238"></path><path d="M194.43,338.14a70.6,70.6,0,0,1-6.29-10.41,70.6,70.6,0,0,1,6.29,10.41Z" style="fill:#263238"></path><path d="M197.15,336.9a33.57,33.57,0,0,1-2.12-5.54,33,33,0,0,1-1.63-5.7,32.69,32.69,0,0,1,2.12,5.54A34.06,34.06,0,0,1,197.15,336.9Z" style="fill:#263238"></path><path d="M199.48,337.18a23.16,23.16,0,0,1-.1-5.95,22.4,22.4,0,0,1,1-5.87c.15,0-.21,2.65-.45,5.91S199.63,337.17,199.48,337.18Z" style="fill:#263238"></path><path d="M57.26,221.87a30.64,30.64,0,0,1-2.39-5.09A30.87,30.87,0,0,1,53,211.49a29.72,29.72,0,0,1,2.39,5.09A30.87,30.87,0,0,1,57.26,221.87Z" style="fill:#263238"></path><path d="M59,219.52a21.65,21.65,0,0,1-.68-4.59,21.11,21.11,0,0,1-.16-4.63,20.07,20.07,0,0,1,.68,4.58A19.81,19.81,0,0,1,59,219.52Z" style="fill:#263238"></path><path d="M62.48,221.51a26.57,26.57,0,0,1,.48-5.22,26.7,26.7,0,0,1,1-5.14,25.68,25.68,0,0,1-.48,5.22A26.7,26.7,0,0,1,62.48,221.51Z" style="fill:#263238"></path><path d="M483.8,382.12a6.14,6.14,0,0,1,3.2,3.61,10.86,10.86,0,0,1,.42,4.91c-.36,3.18-2.17,6.39-4.11,8.93-2.68-2.34-3.3-6.41-3.48-8.5-.29-3.3,1.19-9.45,4-8.95" style="fill:#455a64"></path><path d="M486.42,404.82a5.26,5.26,0,0,1,1.7-5,7,7,0,0,1,5.15-1.61,2.94,2.94,0,0,1,2.26,1,2.24,2.24,0,0,1,0,2.28,4.49,4.49,0,0,1-1.69,1.66c-2.32,1.46-4.83,2.44-7.46,1.65" style="fill:#455a64"></path><path d="M483,414.58a3.37,3.37,0,0,1,.09-.65c.09-.46.19-1.06.32-1.77a18.59,18.59,0,0,1,1.83-5.65,11.3,11.3,0,0,1,4-4.3,7.82,7.82,0,0,1,1.65-.73,4.71,4.71,0,0,1,.48-.12c.11,0,.16,0,.17,0a12,12,0,0,0-2.22,1,11.66,11.66,0,0,0-3.93,4.28,19.75,19.75,0,0,0-1.86,5.56c-.17.74-.3,1.34-.4,1.75A4.18,4.18,0,0,1,483,414.58Z" style="fill:#263238"></path><path d="M483.09,386.89a2.25,2.25,0,0,1,0,.29c0,.21,0,.48.05.82,0,.71.08,1.74.12,3,.08,2.55.15,6.07.13,10s-.11,7.42-.22,10c-.05,1.27-.1,2.3-.14,3,0,.34-.05.61-.06.82a1.36,1.36,0,0,1,0,.29s0-.1,0-.29,0-.48,0-.82c0-.74.05-1.77.08-3,.06-2.55.13-6.07.15-10s0-7.41-.07-10c0-1.25,0-2.28,0-3,0-.34,0-.61,0-.82A.94.94,0,0,1,483.09,386.89Z" style="fill:#263238"></path><path d="M481.79,406.76a12.31,12.31,0,0,0-6.72-9c-.9-.43-2.07-.71-2.8-.05s-.58,1.87-.21,2.79a10.5,10.5,0,0,0,9.66,6.53" style="fill:#455a64"></path><path d="M475.5,400.76a4.14,4.14,0,0,1,.57.25,7,7,0,0,1,.64.34c.24.16.53.3.82.52a9.89,9.89,0,0,1,.94.7,11.56,11.56,0,0,1,1,.91,13.27,13.27,0,0,1,1.89,2.43,13,13,0,0,1,1.25,2.82,10.12,10.12,0,0,1,.31,1.3,9.17,9.17,0,0,1,.17,1.17c0,.35,0,.68,0,1s0,.53,0,.73a2.58,2.58,0,0,1-.07.61s0-.88-.12-2.29a11.08,11.08,0,0,0-.18-1.14c-.08-.41-.2-.83-.33-1.28a13.26,13.26,0,0,0-3.09-5.16c-.33-.33-.65-.65-1-.91s-.62-.51-.9-.72C476.28,401.18,475.48,400.81,475.5,400.76Z" style="fill:#263238"></path></g></svg>
