<svg xmlns="http://www.w3.org/2000/svg" viewBox="0 0 500 500"><g id="freepik--background-simple--inject-8"><path d="M455.59,331.57c-20.14,40.62-55.86,82.72-99.33,90.82-65.67,12.23-80.58,66.85-192.61,46.7A210.74,210.74,0,0,1,116,454.77a180.08,180.08,0,0,1-21.8-11.4c-62-38-87.75-106.93-81.64-174.66,8-89.07,70-123.79,109.91-143.64s96.8-109.76,207.1-90.9a204.46,204.46,0,0,1,49,14.68c35.82,16,70.48,45.55,87.75,84.27q1.95,4.37,3.65,8.88C492.14,200.77,483.05,276.21,455.59,331.57Z" style="fill:#92E3A9"></path><path d="M455.59,331.57c-20.14,40.62-55.86,82.72-99.33,90.82-65.67,12.23-80.58,66.85-192.61,46.7A210.74,210.74,0,0,1,116,454.77a180.08,180.08,0,0,1-21.8-11.4c-62-38-87.75-106.93-81.64-174.66,8-89.07,70-123.79,109.91-143.64s96.8-109.76,207.1-90.9a204.46,204.46,0,0,1,49,14.68c35.82,16,70.48,45.55,87.75,84.27q1.95,4.37,3.65,8.88C492.14,200.77,483.05,276.21,455.59,331.57Z" style="fill:#fff;opacity:0.7000000000000001"></path></g><g id="freepik--Cow--inject-8"><path d="M74.1,157.18l16.52.55s-5.63-4.42-3-4.42,5.63,1.93,5.63,1.93-6-7.46-3.75-6.91,7.13,4.7,7.13,4.7-4.13-15.47.37-13.26,6,7.18,6.39,8,2.62-3.59,3.75-1.38,1.88,7.46,1.88,7.46,4.88-7.74,6-5,0,7.18,0,7.18,5.63-4.7,6.76-2.76a4.12,4.12,0,0,1,.38,3.59h81.46s5.63-10,7.88-7.46a6.53,6.53,0,0,1,1.88,5s6.38-9.39,6.76-5.52a13.44,13.44,0,0,1-.76,6.35s7.89-3.31,7.51-1.93a13.52,13.52,0,0,1-2.25,3.59s7.51-2.49,7.13-1.1l-.37,1.38h18.77" style="fill:none;stroke:#263238;stroke-miterlimit:10"></path><path d="M69.25,24.46s-8.86-6.3-14.38-6.11S41.49,20.13,42.08,22.1s2.56,5.9,10.63,9S68.66,28,68.66,28,70.62,27.61,69.25,24.46Z" style="fill:#263238;stroke:#263238;stroke-miterlimit:10"></path><path d="M140.44,109.59s-4.37,12.11-4.88,18.16,1,25.39.68,27.07-1.69,3-2,4.37-1.18,4.54-2.19,5-9.08-.5-9.08-.5,2.69-6.89,3.2-8.41,1.34-8.91,1.34-8.91.68-17.31,1.18-21.18,1.51-10.93,1.51-10.93l.84-3.19Z" style="fill:#d6d6d6;stroke:#263238;stroke-miterlimit:10"></path><path d="M133.07,162.79c-2.44-2.31-6.88-3.64-8.21-4-.9,2.35-1.91,4.94-1.91,4.94s8.07,1,9.08.5A2.91,2.91,0,0,0,133.07,162.79Z" style="fill:#263238;stroke:#263238;stroke-miterlimit:10"></path><path d="M223.77,62.85s6.72,12.95,6.89,23.37,1.18,28.25,1.85,30.27,3.2,4.37,4.2,9.75a59,59,0,0,1,.84,12.27c0,2.86.17,4.54.17,4.54s.34,0-2.52-6.22a47.56,47.56,0,0,1-4.37-14,48.28,48.28,0,0,1-.34-4.87,128.7,128.7,0,0,0-.84-13.28c-.84-7.23-.84-24-2.69-27.91a40.43,40.43,0,0,0-3.19-5.72S224.27,65.2,223.77,62.85Z" style="fill:#fff;stroke:#263238;stroke-miterlimit:10"></path><path d="M208,124.39s4.7,8.24,6.05,15.13a59.93,59.93,0,0,1,.5,17c-.33,1.51-2.86,3-4.37,4.54s-2.69,3.53-1.85,3.86a36.28,36.28,0,0,0,8.74.17c1.85-.33,5.55-5.21,5.55-6.39s-.5-13.45-.67-19.5,1.51-16.81,1.51-18.15-6.72-7.57-8.4-12.11-1-13.45-1-13.45-5.38,5-6.22,8.58S208,124.39,208,124.39Z" style="fill:#d6d6d6;stroke:#263238;stroke-miterlimit:10"></path><path d="M212.31,159.17c-.74.62-1.54,1.24-2.16,1.87-1.51,1.51-2.69,3.53-1.85,3.86a36.28,36.28,0,0,0,8.74.17,4.5,4.5,0,0,0,1.91-1.2C217.57,162.05,214.19,160.14,212.31,159.17Z" style="fill:#263238;stroke:#263238;stroke-miterlimit:10"></path><path d="M90.9,25.84,90,25.08c-1-.87-2.71-2.36-4.25-3.77-2.36-2.17-3-4.33-7.28-2.76s-7.09,3.55-8.27,3.94-9.84,3.94-9.65,8.66,2,7.09,1.78,9.65-6.3,11-7.09,11.81-3.35,4.73,1.18,8.66S66.1,68,68.26,67.18,73.77,64,75.55,64s7.48,2.56,9.64,8.86,2.76,22,9.06,30.91,16.93,13.19,21.26,12.8,10.83-2.56,12-2.76,28.72,3.22,36.79,2.83,22.44-6,22.44-6,10,14.18,10.63,17.13-2.75,16.34-4.72,21.26a39.22,39.22,0,0,1-6.5,11.22c-2.36,2.76-4.72,4.34-2.95,4.93s9.65.59,10.63-.59,2.76-6.11,3.15-6.89,2.76-1.58,3.15-3.35-.39-2,.79-5.71,8.07-18.11,9.25-20.48.59-5.51-.2-10.23.2-13.79.2-13.79S218.65,90.81,221,84.51s4.53-15.36,2.76-21.66S202.31,38.24,196.4,36.27s-11.22-1-17.72,2-33.24,6.89-39.15,6.3-9.05-3.15-16.73-5.12S112,38.63,109.21,39s-6.49.39-7.87-.2-3.74-1.77-3.74-1.77,12.79,1.38,17.13-2.76S125,22.69,123,21.31s-8.46-5.91-18.5-1.38-11.42,5.32-11.42,5.32Z" style="fill:#fff;stroke:#263238;stroke-miterlimit:10"></path><path d="M131.7,101.52c1.17-2.18,4-3.7,1.85-9.24s-7.57-19-11.44-22.2-2.85-4.53-6.39-3.86-5,1-5,1-2-4.37-.34-6.22,7.07-1.85,7.23-7.74-1-10.42-2.52-12.1a3,3,0,0,1-.34-2.85,35.84,35.84,0,0,0-5.5.71c-2.75.39-6.49.39-7.87-.2s-3.74-1.77-3.74-1.77,12.79,1.38,17.13-2.76S125,22.69,123,21.31s-8.46-5.91-18.5-1.38-11.42,5.32-11.42,5.32l-2.17.59L90,25.08l-.92-.8a4.45,4.45,0,0,1-.79,3.44c-1.85,2.69-10.42-1.51-12.1,2.18S64.62,47.72,64.78,50.25s1.69,9.08,1.69,9.08-2,4.19-2.16,7.17c1.66.72,3.06,1,4,.68,2.17-.79,5.51-3.15,7.29-3.15s7.48,2.56,9.64,8.86,2.76,22,9.06,30.91a30.57,30.57,0,0,0,3.24,3.81c3.43-.91,7.5-4.3,5-14-2.69-10.25,4-19.67,5.21-19.16s-.16,12.77,2.19,18.32,11.1,10.42,12.78,8.91a9.78,9.78,0,0,1,3.7-2S130.52,103.71,131.7,101.52Z" style="fill:#263238;stroke:#263238;stroke-miterlimit:10"></path><path d="M72.2,64.23s1.38-5.32-7.48-9.06S47.79,53.6,46.61,56.55a3.4,3.4,0,0,0,1,4.33S46.8,64.82,49,66.39A9.32,9.32,0,0,0,53.89,68s5.32,5.71,10.83,3.35A14.77,14.77,0,0,0,72.2,64.23Z" style="fill:#92E3A9;stroke:#263238;stroke-miterlimit:10"></path><path d="M53.89,68s3.73-1.62,4.43-1.21,4.86,3.54,7.29,2.53,4-3.14,2.53-5.47" style="fill:none;stroke:#263238;stroke-miterlimit:10"></path><ellipse cx="50.43" cy="59.07" rx="1.82" ry="1.92" style="fill:#263238;stroke:#263238;stroke-miterlimit:10"></ellipse><ellipse cx="59.44" cy="59.17" rx="1.82" ry="1.92" style="fill:#263238;stroke:#263238;stroke-miterlimit:10"></ellipse><path d="M83.61,37.39a2.15,2.15,0,1,1-4.2,0,2.15,2.15,0,1,1,4.2,0Z" style="fill:#fff"></path><path d="M109.5,101.69a103.83,103.83,0,0,0,4.21,13.45c2.18,5,7.23,23.37,7.56,27.4s-1.51,14-2.35,15a38.48,38.48,0,0,0-3.87,5c-1.17,2-1.85,2.69-.17,2.69s8.24.67,9.59-.34,2-5.71,2.52-6.89,2.52-5.55,2.52-7.4-.17-4.37,0-6.05,1.35-22.53,1.68-25.89,5.55-11.09,6.22-15.8,1-6.56,1-6.56" style="fill:#fff;stroke:#263238;stroke-miterlimit:10"></path><path d="M123,163.73c-.89-1.8-4.53-3.1-6.2-3.62a22.65,22.65,0,0,0-1.7,2.44c-1.17,2-1.85,2.69-.17,2.69,1.45,0,6.46.49,8.71,0A12.92,12.92,0,0,0,123,163.73Z" style="fill:#263238;stroke:#263238;stroke-miterlimit:10"></path><path d="M186.16,160.3c-2.36,2.76-4.72,4.34-2.95,4.93s9.65.59,10.63-.59C192.16,159.66,186.16,160.3,186.16,160.3Z" style="fill:#263238;stroke:#263238;stroke-miterlimit:10"></path><path d="M179.72,102c1-1.18-2.18-9.25-1.85-12.27s3.7,4.2,5.72,4.37,15-8.91,13.62-19.51-8.24-13.11-7.4-15.29,5.55-2.69,2.69-8.75S184.93,43,184.93,43s-7.73,1.85-6.05-.51c1.46-2,6.1-4.6,4.19-6a42.73,42.73,0,0,0-4.39,1.73c-6.5,2.95-33.24,6.89-39.15,6.3a29.19,29.19,0,0,1-8.17-2.22l-.17,0s4.2,2.69,1.35,10.6-3.87,15.3,4.87,19.16,8.24-8.07,11.43-6.89,5.38,9.92,2.86,13.45-7.23,8.07-2.35,14.29S178.71,103.2,179.72,102Z" style="fill:#263238;stroke:#263238;stroke-miterlimit:10"></path><path d="M223.77,62.85c-.93-3.28-6.69-9.8-12.85-15.58l-.1.12S195,40.83,196,46.55s11.26,21.52,15.13,22,3.36-8.91,4.37-8.4,6.73,11.43,8.24,10.92a1.1,1.1,0,0,0,.55-.59A22.39,22.39,0,0,0,223.77,62.85Z" style="fill:#263238;stroke:#263238;stroke-miterlimit:10"></path><line x1="186.75" y1="110.69" x2="182.99" y2="105.09" style="fill:none;stroke:#263238;stroke-miterlimit:10"></line></g></svg>
