<svg xmlns="http://www.w3.org/2000/svg" viewBox="0 0 750 500"><g id="freepik--background-complete--inject-7"><path d="M299.46,128.73c7.8,0,139.08.86,147.33.6.59,0,.91-.89.32-1.18-5.2-2.58-11.1-2.06-16.51-3.88-3.18-1.07-5.13-3.15-7.34-5.54a15.1,15.1,0,0,0-6.83-4.45A14.45,14.45,0,0,0,409,114c-2.66.64-5,2.16-7.51,3.12-6.31,2.38-12.44.12-16.94-4.55-3.71-3.84-7.37-7.47-12.41-9.54a16.46,16.46,0,0,0-13.16-.18c-4.81,2.18-8.11,6.57-12.64,9.2-5.36,3.14-11.77,2.4-17.69,3.34s-10.47,5.93-15.67,8.81a11.11,11.11,0,0,1-5.66,1.75,33.69,33.69,0,0,1-3.45-.49c-1.78-.22-3.48-.17-4.68,1.32C298.88,127.19,298.94,128.73,299.46,128.73Z" style="fill:#ebebeb"></path><path d="M454.14,105.35c7.8,0,139.08.86,147.33.6.6,0,.91-.89.32-1.18-5.2-2.58-11.1-2.06-16.5-3.88-3.18-1.07-5.13-3.15-7.34-5.54a15.31,15.31,0,0,0-6.83-4.46,14.44,14.44,0,0,0-7.44-.23c-2.66.63-5,2.16-7.52,3.12-6.3,2.38-12.43.12-16.93-4.55-3.72-3.84-7.37-7.47-12.42-9.55a16.52,16.52,0,0,0-13.15-.18c-4.81,2.18-8.12,6.57-12.64,9.21-5.36,3.13-11.78,2.39-17.7,3.34s-10.47,5.93-15.66,8.8a11,11,0,0,1-5.66,1.76c-1.16,0-2.3-.35-3.45-.49-1.79-.22-3.48-.17-4.69,1.32C453.57,103.81,453.63,105.35,454.14,105.35Z" style="fill:#ebebeb"></path><path d="M159.72,91.46c7.8,0,139.08.86,147.33.6.59,0,.91-.89.32-1.18-5.2-2.58-11.1-2.06-16.5-3.88-3.18-1.07-5.13-3.15-7.34-5.54A15.31,15.31,0,0,0,276.7,77a14.44,14.44,0,0,0-7.44-.23c-2.66.63-5,2.16-7.52,3.12-6.3,2.38-12.43.12-16.94-4.55-3.71-3.84-7.36-7.47-12.41-9.55a16.52,16.52,0,0,0-13.15-.18c-4.82,2.18-8.12,6.57-12.64,9.21-5.36,3.13-11.78,2.39-17.7,3.34s-10.47,5.93-15.66,8.8a11,11,0,0,1-5.66,1.76c-1.16,0-2.3-.35-3.45-.49-1.79-.22-3.49-.17-4.69,1.32C159.15,89.91,159.21,91.46,159.72,91.46Z" style="fill:#ebebeb"></path><path d="M363.62,63.85c5.7,0,101.54.63,107.57.44.43,0,.66-.65.23-.86-3.8-1.88-8.1-1.51-12.05-2.83-2.32-.79-3.75-2.31-5.36-4.05a11,11,0,0,0-5-3.25,10.42,10.42,0,0,0-5.43-.17c-1.94.46-3.63,1.57-5.49,2.28-4.6,1.73-9.07.08-12.36-3.32-2.71-2.81-5.38-5.46-9.06-7a12,12,0,0,0-9.61-.14c-3.51,1.6-5.92,4.8-9.23,6.73-3.91,2.28-8.59,1.74-12.92,2.43s-7.64,4.33-11.43,6.43a8.05,8.05,0,0,1-4.13,1.28c-.85,0-1.68-.25-2.52-.35-1.31-.17-2.55-.13-3.42,1C363.2,62.73,363.25,63.85,363.62,63.85Z" style="fill:#ebebeb"></path><path d="M576.09,185c5.7,0,101.54.63,107.57.44.43,0,.66-.65.23-.86-3.8-1.88-8.1-1.51-12-2.84-2.32-.78-3.75-2.3-5.36-4a11,11,0,0,0-5-3.25,10.42,10.42,0,0,0-5.43-.17c-1.94.46-3.63,1.57-5.48,2.28-4.61,1.73-9.08.08-12.37-3.33-2.71-2.8-5.38-5.45-9.06-7a12.07,12.07,0,0,0-9.61-.13c-3.51,1.59-5.92,4.8-9.23,6.72-3.91,2.29-8.59,1.75-12.91,2.44s-7.65,4.33-11.44,6.43a8.05,8.05,0,0,1-4.13,1.28,23.88,23.88,0,0,1-2.52-.36c-1.31-.16-2.55-.12-3.42,1C575.67,183.86,575.72,185,576.09,185Z" style="fill:#ebebeb"></path><path d="M66.21,187.29c5.7,0,101.54.63,107.57.44.43,0,.66-.65.23-.86-3.79-1.88-8.1-1.51-12-2.84-2.32-.78-3.74-2.3-5.36-4a11.07,11.07,0,0,0-5-3.25,10.43,10.43,0,0,0-5.43-.17c-1.95.46-3.64,1.57-5.49,2.27-4.61,1.74-9.08.09-12.37-3.32-2.71-2.8-5.38-5.45-9.06-7a12.05,12.05,0,0,0-9.6-.13c-3.52,1.59-5.93,4.8-9.23,6.72-3.92,2.29-8.6,1.75-12.92,2.44s-7.65,4.33-11.44,6.43A8,8,0,0,1,72,185.29a23.88,23.88,0,0,1-2.52-.36c-1.3-.16-2.54-.12-3.42,1C65.8,186.16,65.84,187.29,66.21,187.29Z" style="fill:#ebebeb"></path><path d="M682.94,248.54s-33.8-4.21-61.81-16.45c-18.2-8-45.47-14.5-75.8-15.46-26.93-.85-70.71,1.67-122.09,10.61-76.14,13.26-141.76,21.3-141.76,21.3Z" style="fill:#dbdbdb"></path><path d="M67.06,248.54S129.72,205.8,202.57,202c44.31-2.33,94.38,6.51,137.78,17.49,72.33,18.29,129.1,29.09,129.1,29.09Z" style="fill:#ebebeb"></path><g style="opacity:0.5"><path d="M195.2,248.53H163.83c-16-2.76-32-5.82-47.9-8-10.51-1.52-21.3-1.89-32-2.13,20.4-7.23,44.5-5.49,65.73-1.7A301.22,301.22,0,0,1,195.2,248.53Z" style="fill:#dbdbdb"></path><path d="M251.49,248.53H237.16c-15.16-4.72-30.43-9-46.26-12.51-16-3.63-32.3-6.64-48.77-8.79a253.75,253.75,0,0,0-30.19-2.5h-.06l.14,0c24.2-6.43,58-2.88,82.17,2.6C214.54,231.93,234.27,238.9,251.49,248.53Z" style="fill:#dbdbdb"></path><path d="M310.1,248.53h-11c-6.14-2.27-12.26-4.51-18.43-6.69C237.63,227,190.35,211.45,142.4,213.33h-.29l1.79-.48c51.65-13.33,120,9.87,161.85,33.17C307.21,246.86,308.67,247.69,310.1,248.53Z" style="fill:#dbdbdb"></path><path d="M349.81,248.53h-4.27c-10.39-4.69-20.82-9.08-31.41-13.26-37.21-14.31-87.54-32.63-129.52-31.58q8.85-1.23,18-1.73a310.77,310.77,0,0,1,34.88.26h.06c37.31,5.68,76.3,22.27,100.36,37.8C342,242.72,346,245.53,349.81,248.53Z" style="fill:#dbdbdb"></path><path d="M398.08,248.53h-6.53c-8.07-4-16.18-7.8-24.4-11.47-21.63-9.43-47.84-20.48-74.4-28,16.33,2.94,32.38,6.53,47.6,10.38q9.56,2.42,18.73,4.65a235.88,235.88,0,0,1,31.45,18.66C393.12,244.63,395.65,246.55,398.08,248.53Z" style="fill:#dbdbdb"></path><path d="M437.84,248.53h-9.55q-8.13-3.89-16.38-7.57c-7.14-3.12-14.78-6.41-22.78-9.69,12.75,3,24.44,5.58,34.72,7.81,4.12,2.54,7.95,5.08,11.44,7.58C436.15,247.28,437,247.9,437.84,248.53Z" style="fill:#dbdbdb"></path></g><path d="M85.18,318.18c-.58-.24-.83.7-.26.94a3.14,3.14,0,0,1,1.83,3.8.49.49,0,0,0,.94.26A4.15,4.15,0,0,0,85.18,318.18Z" style="fill:#dbdbdb"></path><path d="M89.42,317.28a7.41,7.41,0,0,0-.56,4.28c.1.62,1,.36.93-.25a6.24,6.24,0,0,1,.47-3.54C90.51,317.2,89.67,316.71,89.42,317.28Z" style="fill:#dbdbdb"></path><path d="M616.68,291.36c-.58-.23-.83.7-.26.94a3.14,3.14,0,0,1,1.83,3.81.49.49,0,0,0,.94.25A4.15,4.15,0,0,0,616.68,291.36Z" style="fill:#dbdbdb"></path><path d="M620.92,290.46a7.51,7.51,0,0,0-.56,4.29c.1.61,1,.35.94-.26a6.23,6.23,0,0,1,.46-3.54C622,290.38,621.17,289.89,620.92,290.46Z" style="fill:#dbdbdb"></path><path d="M185.1,458.44c-.58-.24-.83.7-.26.93a3.14,3.14,0,0,1,1.83,3.81.49.49,0,0,0,.94.26A4.15,4.15,0,0,0,185.1,458.44Z" style="fill:#dbdbdb"></path><path d="M189.34,457.53a7.44,7.44,0,0,0-.56,4.29c.1.61,1,.35.94-.26a6.15,6.15,0,0,1,.46-3.54C190.43,457.46,189.59,457,189.34,457.53Z" style="fill:#dbdbdb"></path><path d="M626.54,453.06c-.58-.24-.83.7-.26.93a3.14,3.14,0,0,1,1.83,3.81.49.49,0,0,0,.94.26A4.14,4.14,0,0,0,626.54,453.06Z" style="fill:#dbdbdb"></path><path d="M630.78,452.15a7.52,7.52,0,0,0-.56,4.29c.1.61,1,.35.94-.26a6.23,6.23,0,0,1,.46-3.54C631.87,452.07,631,451.58,630.78,452.15Z" style="fill:#dbdbdb"></path><path d="M278.56,317c-.57-.24-.83.7-.26.94a3.15,3.15,0,0,1,1.84,3.8.48.48,0,0,0,.93.26A4.13,4.13,0,0,0,278.56,317Z" style="fill:#dbdbdb"></path><path d="M282.81,316.06a7.41,7.41,0,0,0-.57,4.28c.1.62,1,.36.94-.25a6.31,6.31,0,0,1,.46-3.54C283.89,316,283.06,315.49,282.81,316.06Z" style="fill:#dbdbdb"></path><path d="M398.65,442.43c-.58-.24-.83.7-.26.94a3.14,3.14,0,0,1,1.83,3.8.49.49,0,0,0,.94.26A4.15,4.15,0,0,0,398.65,442.43Z" style="fill:#dbdbdb"></path><path d="M402.89,441.53a7.41,7.41,0,0,0-.56,4.28c.09.62,1,.36.93-.25a6.27,6.27,0,0,1,.47-3.55C404,441.45,403.14,441,402.89,441.53Z" style="fill:#dbdbdb"></path><path d="M395.66,279.37c-.55-.29-1,.54-.49.83a3,3,0,0,1,1.6,2.94c0,.62.92.62,1,0A3.9,3.9,0,0,0,395.66,279.37Z" style="fill:#dbdbdb"></path><path d="M398.55,277.85c-.3-.55-1.14-.06-.84.49a7.78,7.78,0,0,1,.91,4.15c0,.62.94.62,1,0A8.7,8.7,0,0,0,398.55,277.85Z" style="fill:#dbdbdb"></path><path d="M400.8,278.49a5.09,5.09,0,0,0-.62,3.1c.07.61,1,.62,1,0a4.17,4.17,0,0,1,.48-2.61C401.93,278.44,401.1,278,400.8,278.49Z" style="fill:#dbdbdb"></path><path d="M64.84,375.49c-.55-.29-1,.55-.49.84A3,3,0,0,1,66,379.27c0,.62.92.61,1,0A4,4,0,0,0,64.84,375.49Z" style="fill:#dbdbdb"></path><path d="M67.73,374c-.3-.55-1.13-.06-.84.49a7.75,7.75,0,0,1,.92,4.14c0,.63.93.62,1,0A8.79,8.79,0,0,0,67.73,374Z" style="fill:#dbdbdb"></path><path d="M70,374.62a5.06,5.06,0,0,0-.62,3.1c.08.61,1,.62,1,0a4.23,4.23,0,0,1,.49-2.61C71.12,374.56,70.28,374.07,70,374.62Z" style="fill:#dbdbdb"></path><path d="M551.38,366c-.56-.3-1,.54-.49.83a3,3,0,0,1,1.6,2.94c0,.62.92.62,1,0A3.93,3.93,0,0,0,551.38,366Z" style="fill:#dbdbdb"></path><path d="M554.26,364.47c-.29-.55-1.13-.06-.84.49a7.69,7.69,0,0,1,.92,4.15c0,.62.94.62,1,0A8.71,8.71,0,0,0,554.26,364.47Z" style="fill:#dbdbdb"></path><path d="M556.51,365.11a5.16,5.16,0,0,0-.62,3.1c.08.61,1.05.62,1,0a4.24,4.24,0,0,1,.49-2.61C557.65,365.06,556.81,364.57,556.51,365.11Z" style="fill:#dbdbdb"></path><path d="M679.85,308.93c-.55-.29-1,.55-.49.84a3,3,0,0,1,1.61,2.94c-.06.62.91.61,1,0A3.92,3.92,0,0,0,679.85,308.93Z" style="fill:#dbdbdb"></path><path d="M682.74,307.42c-.3-.55-1.13-.06-.84.49a7.75,7.75,0,0,1,.92,4.14c0,.63.93.62,1,0A8.79,8.79,0,0,0,682.74,307.42Z" style="fill:#dbdbdb"></path><path d="M685,308.06a5.06,5.06,0,0,0-.62,3.1c.07.61,1,.61,1,0a4.21,4.21,0,0,1,.48-2.61C686.13,308,685.29,307.51,685,308.06Z" style="fill:#dbdbdb"></path><path d="M313,426.6c-.55-.29-1,.55-.49.84a3,3,0,0,1,1.6,2.94c-.05.62.92.62,1,0A3.92,3.92,0,0,0,313,426.6Z" style="fill:#dbdbdb"></path><path d="M315.9,425.09c-.3-.55-1.14-.06-.84.49a7.74,7.74,0,0,1,.91,4.14c0,.63.94.63,1,0A8.69,8.69,0,0,0,315.9,425.09Z" style="fill:#dbdbdb"></path><path d="M318.15,425.73a5.06,5.06,0,0,0-.62,3.1c.07.61,1,.62,1,0a4.17,4.17,0,0,1,.48-2.61C319.28,425.67,318.45,425.18,318.15,425.73Z" style="fill:#dbdbdb"></path><path d="M439.08,374.54a.49.49,0,0,1,.49.84,3.92,3.92,0,0,0-1.95,3.65c0,.62-.94.62-1,0A4.89,4.89,0,0,1,439.08,374.54Z" style="fill:#dbdbdb"></path><path d="M435.53,376.86l.33,1.95c.11.61-.83.87-.93.26s-.23-1.3-.34-1.95S435.42,376.25,435.53,376.86Z" style="fill:#dbdbdb"></path><path d="M664.45,395.89a.49.49,0,0,1,.49.84,3.92,3.92,0,0,0-2,3.65c0,.62-.94.62-1,0A4.89,4.89,0,0,1,664.45,395.89Z" style="fill:#dbdbdb"></path><path d="M660.9,398.21l.33,2c.11.61-.83.87-.93.26s-.23-1.3-.34-1.95S660.79,397.6,660.9,398.21Z" style="fill:#dbdbdb"></path><path d="M509.82,286.19a.48.48,0,0,1,.48.84,3.92,3.92,0,0,0-1.94,3.65c0,.62-.94.62-1,0A4.89,4.89,0,0,1,509.82,286.19Z" style="fill:#dbdbdb"></path><path d="M506.26,288.51c.12.65.23,1.3.34,1.95s-.83.87-.94.26l-.33-2C505.22,288.16,506.16,287.9,506.26,288.51Z" style="fill:#dbdbdb"></path><path d="M117.53,424.82a.49.49,0,0,0-.49.84,4,4,0,0,1,1.95,3.65c0,.63.93.62,1,0A4.92,4.92,0,0,0,117.53,424.82Z" style="fill:#dbdbdb"></path><path d="M121.08,427.14c-.11.65-.23,1.3-.34,1.95s.83.88.94.26l.33-2C122.12,426.79,121.18,426.53,121.08,427.14Z" style="fill:#dbdbdb"></path><path d="M103.45,280.68c-.47-.4-1.16.28-.68.68a4.56,4.56,0,0,1,1.68,3.8c0,.62.93.62,1,0A5.4,5.4,0,0,0,103.45,280.68Z" style="fill:#dbdbdb"></path><path d="M300.6,441.21c-.48-.39-1.17.29-.68.69a4.53,4.53,0,0,1,1.67,3.8c0,.62.94.62,1,0A5.43,5.43,0,0,0,300.6,441.21Z" style="fill:#dbdbdb"></path><path d="M360.87,372c-.48-.39-1.17.29-.69.69a4.5,4.5,0,0,1,1.68,3.8c0,.62.93.62,1,0A5.45,5.45,0,0,0,360.87,372Z" style="fill:#dbdbdb"></path><path d="M323.05,295.11c-.48-.4-1.17.28-.69.68a4.51,4.51,0,0,1,1.68,3.8c0,.62.94.62,1,0A5.39,5.39,0,0,0,323.05,295.11Z" style="fill:#dbdbdb"></path><path d="M439.9,301.21c.48-.4,1.17.28.69.68a4.51,4.51,0,0,0-1.68,3.8c0,.62-.93.62-1,0A5.42,5.42,0,0,1,439.9,301.21Z" style="fill:#dbdbdb"></path><path d="M493.16,458.66c.48-.39,1.17.29.69.69a4.5,4.5,0,0,0-1.68,3.8c0,.62-.94.62-1,0A5.45,5.45,0,0,1,493.16,458.66Z" style="fill:#dbdbdb"></path><path d="M674.43,332.41c.47-.4,1.16.28.68.68a4.56,4.56,0,0,0-1.68,3.8c0,.62-.93.62-1,0A5.4,5.4,0,0,1,674.43,332.41Z" style="fill:#dbdbdb"></path><path d="M198.68,384.66c.47-.39,1.16.29.68.69a4.53,4.53,0,0,0-1.68,3.79c0,.63-.93.63-1,0A5.43,5.43,0,0,1,198.68,384.66Z" style="fill:#dbdbdb"></path><path d="M471.36,427.52a5.76,5.76,0,0,0-1.55,5.13c.12.62,1.05.36.94-.26a4.72,4.72,0,0,1,1.29-4.18C472.48,427.76,471.79,427.08,471.36,427.52Z" style="fill:#dbdbdb"></path><path d="M467.82,428.05v3.26a.49.49,0,0,0,1,0v-3.26A.49.49,0,0,0,467.82,428.05Z" style="fill:#dbdbdb"></path><path d="M473,429.08a3,3,0,0,0-1.37,2.64c0,.62,1,.62,1,0a2,2,0,0,1,.89-1.8C474,429.57,473.53,428.73,473,429.08Z" style="fill:#dbdbdb"></path><path d="M368.76,341.65a5.75,5.75,0,0,0-1.55,5.13c.12.61,1.05.35.94-.26a4.74,4.74,0,0,1,1.29-4.19C369.88,341.89,369.19,341.2,368.76,341.65Z" style="fill:#dbdbdb"></path><path d="M365.22,342.18v3.25a.49.49,0,0,0,1,0v-3.25A.49.49,0,0,0,365.22,342.18Z" style="fill:#dbdbdb"></path><path d="M370.41,343.2a3,3,0,0,0-1.37,2.64c0,.62,1,.63,1,0a2,2,0,0,1,.89-1.8C371.42,343.7,370.93,342.86,370.41,343.2Z" style="fill:#dbdbdb"></path><path d="M646.57,379.3a5.73,5.73,0,0,0-1.54,5.13c.11.61,1,.35.93-.26a4.72,4.72,0,0,1,1.29-4.18C647.69,379.54,647,378.85,646.57,379.3Z" style="fill:#dbdbdb"></path><path d="M643,379.83v3.26a.49.49,0,0,0,1,0v-3.26A.49.49,0,0,0,643,379.83Z" style="fill:#dbdbdb"></path><path d="M648.22,380.86a3,3,0,0,0-1.37,2.63c0,.62,1,.63,1,0a2,2,0,0,1,.89-1.8C649.23,381.35,648.75,380.51,648.22,380.86Z" style="fill:#dbdbdb"></path><polygon points="385.64 248.54 377.22 165.77 372.77 165.77 364.36 248.54 362.37 248.38 370.94 164.04 379.05 164.04 387.63 248.38 385.64 248.54" style="fill:#dbdbdb"></polygon><rect x="366.52" y="173.76" width="16.96" height="1.73" style="fill:#dbdbdb"></rect><rect x="365.02" y="189.56" width="19.95" height="1.73" style="fill:#dbdbdb"></rect><rect x="363.36" y="207.09" width="23.28" height="1.73" style="fill:#dbdbdb"></rect><rect x="361.7" y="227.39" width="26.6" height="1.73" style="fill:#dbdbdb"></rect><polygon points="384.77 228.46 366.23 208.15 366.81 207.75 385.36 228.05 384.77 228.46" style="fill:#dbdbdb"></polygon><polygon points="365.23 228.46 364.64 228.05 383.22 207.75 383.81 208.15 365.23 228.46" style="fill:#dbdbdb"></polygon><polygon points="383.09 207.54 367.64 190.63 368.23 190.23 383.68 207.14 383.09 207.54" style="fill:#dbdbdb"></polygon><polygon points="366.9 207.54 366.32 207.14 381.8 190.23 382.39 190.63 366.9 207.54" style="fill:#dbdbdb"></polygon><polygon points="379.29 189.83 370.89 175.52 371.56 175.23 379.96 189.53 379.29 189.83" style="fill:#dbdbdb"></polygon><polygon points="370.84 189.83 370.17 189.53 378.59 175.23 379.26 175.52 370.84 189.83" style="fill:#dbdbdb"></polygon><polygon points="378.06 174.46 371.83 165.47 372.48 165.14 378.7 174.13 378.06 174.46" style="fill:#dbdbdb"></polygon><polygon points="371.94 174.46 371.3 174.13 377.54 165.14 378.18 165.47 371.94 174.46" style="fill:#dbdbdb"></polygon><polygon points="380.22 139.19 375 164.49 370.8 139.19 380.22 139.19" style="fill:#a6a6a6"></polygon><polygon points="360.8 142.91 375 164.49 354.14 149.57 360.8 142.91" style="fill:#a6a6a6"></polygon><polygon points="349.7 159.27 375 164.49 349.7 168.69 349.7 159.27" style="fill:#a6a6a6"></polygon><polygon points="353.42 178.69 375 164.49 360.08 185.35 353.42 178.69" style="fill:#a6a6a6"></polygon><polygon points="389.2 186.07 375 164.49 395.86 179.41 389.2 186.07" style="fill:#a6a6a6"></polygon><polygon points="400.3 169.71 375 164.49 400.3 160.29 400.3 169.71" style="fill:#a6a6a6"></polygon><polygon points="396.58 150.29 375 164.49 389.92 143.63 396.58 150.29" style="fill:#a6a6a6"></polygon><path d="M375,173.81a9.32,9.32,0,1,1,9.32-9.32A9.33,9.33,0,0,1,375,173.81Zm0-17.89a8.57,8.57,0,1,0,8.57,8.57A8.59,8.59,0,0,0,375,155.92Z" style="fill:#ebebeb"></path></g><g id="freepik--Floor--inject-7"><path d="M63.78,248.89c199.39-.61,423.05-.61,622.44,0-199.39.62-423,.62-622.44,0Z" style="fill:#263238"></path></g><g id="freepik--Farm--inject-7"><polygon points="477.76 143.88 477.76 192.3 639.51 192.3 622.43 164.04 588.87 143.88 477.76 143.88" style="fill:#03550A"></polygon><polygon points="477.76 143.88 477.76 192.3 639.51 192.3 622.43 164.04 588.87 143.88 477.76 143.88" style="opacity:0.5"></polygon><polygon points="477.76 164.04 477.76 192.3 639.51 192.3 622.43 164.04 477.76 164.04" style="opacity:0.1"></polygon><rect x="524.68" y="192.3" width="114.83" height="56.23" transform="translate(1164.18 440.84) rotate(180)" style="fill:#03550A"></rect><rect x="524.68" y="192.3" width="114.83" height="56.23" transform="translate(1164.18 440.84) rotate(180)" style="opacity:0.2"></rect><path d="M524.68,195.92H639.51v.85H524.68Zm0,5.67H639.51v-.86H524.68Zm0,4.81H639.51v-.85H524.68Zm0,4.82H639.51v-.86H524.68Zm0,4.81H639.51v-.85H524.68Zm0,4.82H639.51V220H524.68Zm0,4.81H639.51v-.85H524.68Zm0,4.82H639.51v-.86H524.68Zm0,4.81H639.51v-.85H524.68Zm0,4.82H639.51v-.86H524.68Zm0,4.81H639.51v-.85H524.68Z" style="opacity:0.1"></path><polygon points="430.86 192.3 430.86 248.54 524.68 248.54 524.68 192.3 507.6 164.04 477.76 146.33 447.94 164.04 430.86 192.3" style="fill:#03550A"></polygon><path d="M524.68,195.92v.85H430.86v-.85Zm-93.82,4.8v.86h93.82v-.86Zm.21-8.77h93.61v-.85H431.59Zm2.9-4.8h87.6l-.52-.86H434.49Zm2.92-4.82h81.76l-.52-.86H437.41Zm2.91-4.82h75.94l-.52-.86h-74.9Zm2.92-4.81h70.1l-.5-.86h-69.1Zm2.9-4.82h64.3l-.52-.86H446.14Zm4-4.82h56.34l-1.44-.86H451Zm8.08-4.81h40.16l-1.43-.85H459.13Zm8.12-4.82h23.93l-1.44-.85H467.24Zm8.12-4.82h7.7l-1.45-.85h-4.82Zm-43.06,56.94v.85h93.82v-.85Zm0,4.82v.85h93.82v-.85Zm0,4.8V216h93.82v-.86Zm0,4.82v.86h93.82V220Zm0,4.82v.86h93.82v-.86Zm0,4.81v.85h93.82v-.85Zm0,4.82v.85h93.82v-.85Zm0,4.82v.85h93.82v-.85Zm0,4.81v.85h93.82v-.85Z" style="opacity:0.1"></path><polygon points="431.39 195.49 449.47 165.58 477.76 148.77 506.07 165.58 523.49 194.41 642.49 194.41 642.49 190.2 525.86 190.2 509.12 162.5 477.76 143.88 446.42 162.5 427.79 193.32 431.39 195.49" style="fill:#fff"></polygon><path d="M431.39,195.49l18.06-29.94,28.28-16.83c0-.12,28.35,16.8,28.39,16.77s17.44,28.83,17.48,28.85c-.87,0,120.21-.55,118.64.06v-4.2c1.6.73-116.76-.11-116.38.14-.12.13-16.76-27.75-16.83-27.78.28.16-31.62-18.74-31.23-18.61,0,0-31.42,18.63-31.35,18.57l-18.65,30.8,3.59,2.17Zm0,0-3.6-2.17,18.6-30.85,31.37-18.67c.1.07,31.38,18.56,31.45,18.64-.1,0,17.13,28,16.65,27.62.08-.2,116.75,0,116.87-.11v4.45c.24.7-119-.1-119.31.13,0,0-17.53-29-17.4-28.87s-28.56-16.94-28.22-16.83c0,0-28.36,16.81-28.3,16.76l-18.11,29.9Z" style="fill:#263238"></path><rect x="608.19" y="204.77" width="19.93" height="12.04" transform="translate(1236.32 421.58) rotate(180)" style="fill:#263238"></rect><path d="M606.79,203.37h22.74v14.84H606.79Zm19.93,2.8H609.59v9.24h17.13Z" style="fill:#fff"></path><rect x="572.13" y="204.77" width="19.93" height="12.04" transform="translate(1164.18 421.58) rotate(180)" style="fill:#263238"></rect><path d="M570.72,203.37h22.74v14.84H570.72Zm19.94,2.8H573.53v9.24h17.13Z" style="fill:#fff"></path><rect x="536.06" y="204.77" width="19.93" height="12.04" transform="translate(1092.05 421.58) rotate(180)" style="fill:#263238"></rect><path d="M534.66,203.37h22.73v14.84H534.66Zm19.93,2.8H537.46v9.24h17.13Z" style="fill:#fff"></path><rect x="468.9" y="170.35" width="15.65" height="15.65" transform="translate(953.44 356.34) rotate(180)" style="fill:#263238"></rect><path d="M467.5,169H486V187.4H467.5Zm15.64,2.8H470.3v12.84h12.84Z" style="fill:#fff"></path><rect x="448.69" y="204.77" width="56.06" height="42.31" transform="translate(953.44 451.85) rotate(180)" style="fill:#455a64"></rect><path d="M447.29,203.37h58.86v45.11H447.29Zm56.06,2.8H450.09v39.51h53.26Z" style="fill:#fff"></path><rect x="465.36" y="224.52" width="50.75" height="2.8" transform="translate(31.37 510.26) rotate(-56.48)" style="fill:#fff"></rect><rect x="461.3" y="200.55" width="2.8" height="50.75" transform="translate(-47.8 293.14) rotate(-33.53)" style="fill:#fff"></rect><rect x="475.32" y="204.77" width="2.8" height="42.31" style="fill:#fff"></rect></g><g id="freepik--Shadows--inject-7"><ellipse cx="176.31" cy="350.59" rx="83.6" ry="9.09" style="fill:#ebebeb"></ellipse><ellipse cx="630.17" cy="365.92" rx="60.44" ry="8.08" style="fill:#ebebeb"></ellipse><path d="M161.08,444.13c0,2.95-13.12,5.34-29.31,5.34s-29.3-2.39-29.3-5.34,13.12-5.34,29.3-5.34S161.08,441.18,161.08,444.13Z" style="fill:#ebebeb"></path><path d="M375.64,457c0,2.95-13.12,5.34-29.3,5.34S317,460,317,457s13.12-5.34,29.31-5.34S375.64,454.06,375.64,457Z" style="fill:#ebebeb"></path><path d="M426.58,457c0,2.95-13.12,5.34-29.3,5.34S368,460,368,457s13.12-5.34,29.31-5.34S426.58,454.06,426.58,457Z" style="fill:#ebebeb"></path><ellipse cx="413.53" cy="350.59" rx="102.2" ry="9.09" style="fill:#ebebeb"></ellipse></g><g id="freepik--Cows--inject-7"><path d="M221.14,263.62s3,14.81,1.86,18.39c-.67,2.06-12.44,35.68-12.44,37.4s5.28,29.52,5.28,29.52l1.11-2.82,2.53,2.63a20.68,20.68,0,0,0-1-3.44c-.59-1.23-1.35-3.53-1.35-3.53s4.64-12.63,5.92-16.91c1-3.27,18.66-19.44,23.89-27.61,1.63-2.56,11.46-27.7,12.95-34.11C260.85,259,220.54,261.32,221.14,263.62Z" style="fill:#03550A"></path><path d="M221.14,263.62s3,14.81,1.86,18.39c-.67,2.06-12.44,35.68-12.44,37.4s5.28,29.52,5.28,29.52l1.11-2.82,2.53,2.63a20.68,20.68,0,0,0-1-3.44c-.59-1.23-1.35-3.53-1.35-3.53s4.64-12.63,5.92-16.91c1-3.27,18.66-19.44,23.89-27.61,1.63-2.56,11.46-27.7,12.95-34.11C260.85,259,220.54,261.32,221.14,263.62Z" style="opacity:0.5"></path><path d="M111.1,248.14c2.14,8.22,10.16,51.49,10.44,54.93s-3.87,19.57-3.87,21.28,11.93,24.58,11.93,24.58l1.11-2.82,2.54,2.63a11.65,11.65,0,0,0-1-3.44c-.67-1.05-2.39-3.53-2.39-3.53s.48-12.42,1.15-15.77,14.71-20.44,17.87-28.66,1.81-30,1.33-34.2S110.5,245.84,111.1,248.14Z" style="fill:#03550A"></path><path d="M111.1,248.14c2.14,8.22,10.16,51.49,10.44,54.93s-3.87,19.57-3.87,21.28,11.93,24.58,11.93,24.58l1.11-2.82,2.54,2.63a11.65,11.65,0,0,0-1-3.44c-.67-1.05-2.39-3.53-2.39-3.53s.48-12.42,1.15-15.77,14.71-20.44,17.87-28.66,1.81-30,1.33-34.2S110.5,245.84,111.1,248.14Z" style="opacity:0.5"></path><path d="M85,221.39c.47-6.11,14.33-25.22,19.49-27.23s71.94,6.59,80.82,6.31S240.4,192,245.56,190s25.1,26.4,25.1,26.4c-1.72.57-8.53,41.53-11.4,48s-39.55,35.11-43.85,35.4-41.56,3.15-58.76,2.86-40.7-4.15-46.72-7S83.14,245.46,85,221.39Z" style="fill:#03550A"></path><path d="M85,221.39c.47-6.11,14.33-25.22,19.49-27.23s71.94,6.59,80.82,6.31S240.4,192,245.56,190s25.1,26.4,25.1,26.4c-1.72.57-8.53,41.53-11.4,48s-39.55,35.11-43.85,35.4-41.56,3.15-58.76,2.86-40.7-4.15-46.72-7S83.14,245.46,85,221.39Z" style="opacity:0.30000000000000004"></path><path d="M244.41,207.11c-3.93,5-2.41,20.11-14.42,21.73S216.2,219.12,206.6,217c-9.2-2.09-14.6-7.18-18.68-16.67,13-1.28,52.88-8.42,57.65-10.27a54,54,0,0,0,8.4-5.09,17.56,17.56,0,0,1,1.23,5.34C255.69,200.1,248.35,202.08,244.41,207.11Z" style="opacity:0.1"></path><path d="M193.08,226.34c-4-11.94-30.44-2-37.43,0s-27.77-6.77-36.29,0S115,247.87,131,253.47c9.18,3.21,17.22,22.07,34.72,19.88s14.21-16.62,17.71-23.83S196.4,236.4,193.08,226.34Z" style="opacity:0.1"></path><path d="M164.09,198.76a8.75,8.75,0,0,1-1.38,2.59c-5,6.47-19.61.53-24,2.76s-18.48,7.57-22.27-2.37c-1.38-3.61-1.58-5.78-1.22-7.59C127.64,194.94,148.25,197.18,164.09,198.76Z" style="opacity:0.1"></path><path d="M269.59,219c-1.79,6.49-5,23.67-7.57,35.17-3.29-1.66-3.25-6.55-4.12-10.81-.91-4.42-5-7.75-4.62-14.32S261.25,219.26,269.59,219Z" style="opacity:0.1"></path><path d="M88.6,248.14c2.14,8.22,10.16,51.49,10.44,54.93s-3.87,19.57-3.87,21.28,11.93,24.58,11.93,24.58l1.11-2.82,2.54,2.63a11.65,11.65,0,0,0-1-3.44c-.67-1.05-2.39-3.53-2.39-3.53s.48-12.42,1.15-15.77,14.71-20.44,17.87-28.66,1.81-30,1.33-34.2S88,245.84,88.6,248.14Z" style="fill:#03550A"></path><path d="M88.6,248.14c2.14,8.22,10.16,51.49,10.44,54.93s-3.87,19.57-3.87,21.28,11.93,24.58,11.93,24.58l1.11-2.82,2.54,2.63a11.65,11.65,0,0,0-1-3.44c-.67-1.05-2.39-3.53-2.39-3.53s.48-12.42,1.15-15.77,14.71-20.44,17.87-28.66,1.81-30,1.33-34.2S88,245.84,88.6,248.14Z" style="opacity:0.30000000000000004"></path><path d="M125.4,299.49c1.84-4.62,3.77-9.1,4.61-14l1-4.83c.94-4,1.85-8.05,2.88-12a10.29,10.29,0,0,1,.75-2.42,16.44,16.44,0,0,1,3.48-3.58c-1.75,1.8-3.45,3.52-3.64,6.12l-.48,2.43c-.95,4.67-2.07,9.84-3.17,14.51-.9,4.89-3.12,9.47-5.46,13.81Z" style="opacity:0.1"></path><path d="M289.69,182.11c3.47,1,9.56,6.35,12.72,8.59s17.35-2,17.1-2.64-8.8-8.62-12.17-9.46-10.37,3.06-16.23,1.81Z" style="fill:#03550A"></path><path d="M289.69,182.11c3.47,1,9.56,6.35,12.72,8.59s17.35-2,17.1-2.64-8.8-8.62-12.17-9.46-10.37,3.06-16.23,1.81Z" style="opacity:0.5"></path><path d="M247.2,184.92c-3,2.26-11.39,3.94-15.27,5.15s-9.32,15.8-8.66,16,12.79-1.87,15.64-4.15,4-10.61,8.81-14.71Z" style="fill:#03550A"></path><path d="M247.2,184.92c-3,2.26-11.39,3.94-15.27,5.15s-9.32,15.8-8.66,16,12.79-1.87,15.64-4.15,4-10.61,8.81-14.71Z" style="opacity:0.30000000000000004"></path><path d="M226.56,203a58.51,58.51,0,0,1,4.41-7.88,7,7,0,0,1,2.16-2.29c3.63-1.72,7.56-2.49,10.81-4.92l1.56-1a46.73,46.73,0,0,0-3.27,6.52c-1.06,2.51-2,5.64-4.67,7a19.21,19.21,0,0,1-2.64,1c-1.79.54-3.59,1-5.41,1.36A54.57,54.57,0,0,0,237.3,200c2.37-1.4,3.1-4.36,4.13-6.78a36.4,36.4,0,0,1,2.36-5.11l.68.62c-3.24,2.4-7.39,3.26-11,4.81-2.93,2.28-4.79,6.4-6.87,9.5Z" style="opacity:0.1"></path><path d="M250.09,189.11s-20.39-7.46-22-9.74-5.82-26.36-4.68-27.47c.89-.87,9.4,15.28,11.49,17.38,3.07,3.1,18.36,6.5,18.36,6.5Z" style="fill:#03550A"></path><path d="M250.09,189.11s-20.39-7.46-22-9.74-5.82-26.36-4.68-27.47c.89-.87,9.4,15.28,11.49,17.38,3.07,3.1,18.36,6.5,18.36,6.5Z" style="fill:#fff;opacity:0.7000000000000001"></path><path d="M292.21,183.07s16.17-10.69,17.1-13-.39-24.11-1.6-24.83c-1-.57-5,15.21-6.4,17.47-2,3.32-14.6,9.44-14.6,9.44Z" style="fill:#03550A"></path><path d="M292.21,183.07s16.17-10.69,17.1-13-.39-24.11-1.6-24.83c-1-.57-5,15.21-6.4,17.47-2,3.32-14.6,9.44-14.6,9.44Z" style="fill:#fff;opacity:0.7000000000000001"></path><path d="M245.7,180s-5.06,35.74,1.35,43.14,25.68,9.49,26.67,10S287,243.35,291.34,243.6s17.25-4.35,19.69-6.24c1.08-.83,2.59-11.34,2.35-13.16-.16-1.25-6.45-5.71-6.82-7.19s-12.8-44.42-16.62-46.52S251.49,165.71,245.7,180Z" style="fill:#03550A"></path><path d="M245.7,180s-5.06,35.74,1.35,43.14,25.68,9.49,26.67,10S287,243.35,291.34,243.6s17.25-4.35,19.69-6.24c1.08-.83,2.59-11.34,2.35-13.16-.16-1.25-6.45-5.71-6.82-7.19s-12.8-44.42-16.62-46.52S251.49,165.71,245.7,180Z" style="opacity:0.30000000000000004"></path><path d="M274.91,214.84c0-.11-.26.15-.25.27.11,3-.33,6.53-3.34,7.54-.09,0-.08.19,0,.17C275,222.35,275.55,217.7,274.91,214.84Z" style="fill:#263238"></path><path d="M271.93,211.67c-5.35-.36-5.76,9.44-.8,9.77S276.43,212,271.93,211.67Z" style="fill:#263238"></path><path d="M311,237.37c-2.44,1.88-15.37,6.48-19.69,6.23a8.44,8.44,0,0,1-2.7-.81c-2.7-2.64-3.62-11-2-13.54s11.48-2.53,14.18-3.44,6.85-5,10-4.47h0c1.35,1.23,2.52,2.33,2.59,2.86C313.62,226,312.1,236.54,311,237.37Z" style="fill:#ffc4c0"></path><path d="M306.17,230.76c.14-2.24,1.05-4.07,2-4.1s1.67,1.77,1.53,4-1,4.07-2,4.09S306,233,306.17,230.76Z" style="opacity:0.1"></path><path d="M292.74,235.25c-.45-2.38.16-4.43,1.36-4.59s2.54,1.66,3,4.05-.17,4.43-1.37,4.58S293.19,237.64,292.74,235.25Z" style="opacity:0.1"></path><path d="M244.54,190.44a70,70,0,0,1-.73,13.49,32.7,32.7,0,0,1,.73-13.49Z" style="fill:#263238"></path><path d="M247.61,223.73c5.6,4.19,12.45,6.06,19.09,8-6.88-.52-14.37-2.7-19.09-8Z" style="fill:#263238"></path><path d="M248.31,226.53c2.31.39,4.32,1.19,6.59,1.72a8.45,8.45,0,0,1-6.59-1.72Z" style="fill:#263238"></path><path d="M243.81,197.19a25.69,25.69,0,0,1-1.43,4.51,4.57,4.57,0,0,1,1.43-4.51Z" style="fill:#263238"></path><path d="M262.78,176.55c-.42,4.43,0,9.07,2.63,12.81,1.34,1.9,3.62,4.17,6.12,3.8,3.52-.52,2.58-5.95,2.47-8.46,0-.33.47-.53.6-.17,1.22,3.38,3.69,8.11,7.12,9.73,1.4.66,3.51.74,4.58-.65.9-1.16.6-2.89.3-4.2a16.5,16.5,0,0,0-2.53-5.64.29.29,0,0,1,.45-.36,16.57,16.57,0,0,0,2.2,1.9c1,.72,2.56,2,2.06-.33-.32-1.45-2.2-2.94-3.36-3.72-.22-.14,0-.44.24-.31a8.76,8.76,0,0,1,3.11,3c.33.54,1.14,1.78.87,2.49-.5,1.34-2.49,0-3.95-1.18,1.93,3.48,3.72,9.19-1,10.15s-8-4.4-9.83-8.5c.22,2.26.23,4.88-1.25,6.26-1.83,1.69-4.5.71-6.19-.63-4.74-3.77-6-8.69-4.88-15.87C262.61,176.42,262.81,176.33,262.78,176.55Z" style="opacity:0.2"></path><path d="M99.35,198.38c-5.27,2.18-12.25,6.19-15.31,9.25s-16,26.66-18,32c-1.79,4.68-2,22.32-2,22.32l2.83.62s1.42-18.72,2.83-21.28c3.16-5.74,14.81-25.23,17.68-25.9Z" style="fill:#03550A"></path><g style="opacity:0.30000000000000004"><path d="M99.35,198.38c-5.27,2.18-12.25,6.19-15.31,9.25s-16,26.66-18,32c-1.79,4.68-2,22.32-2,22.32l2.83.62s1.42-18.72,2.83-21.28c3.16-5.74,14.81-25.23,17.68-25.9Z"></path></g><path d="M64.65,260.86c-3.67,1.4-5.09,6.15-5.1,7.5s2.93,6,3.54,6.74.72-2.74.72-2.74,5.23,9.72,6.42,9.36.09-11.05.09-11.05,1.23,1.95,1.72,1.8,0-5-1-7.09S66.27,261,66.27,261Z" style="fill:#263238"></path><path d="M209.29,263.62s1.37,14.95.2,18.53c-.68,2.06-16.41,35.54-16.41,37.26S205,348.93,205,348.93l1.11-2.82,2.53,2.63a11.52,11.52,0,0,0-1-3.44c-.67-1.05-2.39-3.53-2.39-3.53s.48-12.42,1.15-15.77,22-21,27.92-28.75,23.07-29,25.56-34.11C261.75,259.33,208.7,261.32,209.29,263.62Z" style="fill:#03550A"></path><path d="M209.29,263.62s1.37,14.95.2,18.53c-.68,2.06-16.41,35.54-16.41,37.26S205,348.93,205,348.93l1.11-2.82,2.53,2.63a11.52,11.52,0,0,0-1-3.44c-.67-1.05-2.39-3.53-2.39-3.53s.48-12.42,1.15-15.77,22-21,27.92-28.75,23.07-29,25.56-34.11C261.75,259.33,208.7,261.32,209.29,263.62Z" style="opacity:0.30000000000000004"></path><path d="M201.09,300.78c2-5.75,4.88-11.21,7-16.9.21-5.36-1.07-10.69-1.69-16,1.35,5.27,2.78,10.67,2.62,16.14a3.87,3.87,0,0,1-.31,1.17c-2.45,5.25-4.88,10.51-7.62,15.61Z" style="opacity:0.1"></path><path d="M379.37,263.62s-3,14.81-1.86,18.39c.67,2.06,12.44,35.68,12.44,37.4s-5.28,29.52-5.28,29.52l-1.11-2.82L381,348.74a19.7,19.7,0,0,1,1-3.44c.59-1.23,1.35-3.53,1.35-3.53s-4.64-12.63-5.92-16.91c-1-3.27-18.66-19.44-23.89-27.61-1.63-2.56-11.46-27.7-12.95-34.11C339.66,259,380,261.32,379.37,263.62Z" style="fill:#03550A"></path><path d="M379.37,263.62s-3,14.81-1.86,18.39c.67,2.06,12.44,35.68,12.44,37.4s-5.28,29.52-5.28,29.52l-1.11-2.82L381,348.74a19.7,19.7,0,0,1,1-3.44c.59-1.23,1.35-3.53,1.35-3.53s-4.64-12.63-5.92-16.91c-1-3.27-18.66-19.44-23.89-27.61-1.63-2.56-11.46-27.7-12.95-34.11C339.66,259,380,261.32,379.37,263.62Z" style="fill:#fff;opacity:0.30000000000000004"></path><path d="M482,248.14c-2.14,8.22-10.16,51.49-10.45,54.93s3.87,19.57,3.87,21.28-11.93,24.58-11.93,24.58l-1.11-2.82-2.53,2.63a11.52,11.52,0,0,1,1-3.44c.67-1.05,2.39-3.53,2.39-3.53s-.48-12.42-1.15-15.77-14.71-20.44-17.86-28.66-1.82-30-1.34-34.2S482.61,245.84,482,248.14Z" style="fill:#03550A"></path><path d="M482,248.14c-2.14,8.22-10.16,51.49-10.45,54.93s3.87,19.57,3.87,21.28-11.93,24.58-11.93,24.58l-1.11-2.82-2.53,2.63a11.52,11.52,0,0,1,1-3.44c.67-1.05,2.39-3.53,2.39-3.53s-.48-12.42-1.15-15.77-14.71-20.44-17.86-28.66-1.82-30-1.34-34.2S482.61,245.84,482,248.14Z" style="fill:#fff;opacity:0.30000000000000004"></path><path d="M508.1,221.39c-.47-6.11-14.33-25.22-19.49-27.23s-71.94,6.59-80.82,6.31-51.38,10.32-60.11,15.19c-6.87,3.84-36.34,65.4-36.34,65.4L338.17,308s22.59-8.46,26.89-8.17,54.19,3.15,71.39,2.86,40.7-4.15,46.72-7S510,245.46,508.1,221.39Z" style="fill:#03550A"></path><path d="M508.1,221.39c-.47-6.11-14.33-25.22-19.49-27.23s-71.94,6.59-80.82,6.31-51.38,10.32-60.11,15.19c-6.87,3.84-36.34,65.4-36.34,65.4L338.17,308s22.59-8.46,26.89-8.17,54.19,3.15,71.39,2.86,40.7-4.15,46.72-7S510,245.46,508.1,221.39Z" style="fill:#fff;opacity:0.6000000000000001"></path><path d="M405,200.6c-4.06,9.29-9.45,14.28-18.54,16.35-9.6,2.17-11.36,13.53-23.39,11.89-8.28-1.11-10.13-8.63-11.76-14.83C363.57,209.2,393.73,201.7,405,200.6Z" style="fill:#263238"></path><path d="M400,226.34c3.94-11.94,30.43-2,37.42,0s27.77-6.77,36.3,0,4.37,21.53-11.64,27.13c-9.18,3.21-17.22,22.07-34.71,19.88s-14.21-16.62-17.71-23.83S396.7,236.4,400,226.34Z" style="fill:#263238"></path><path d="M429,198.76a9,9,0,0,0,1.38,2.59c5,6.47,19.61.53,24.05,2.76s18.48,7.57,22.27-2.37c1.38-3.61,1.57-5.78,1.22-7.59C465.46,194.94,444.85,197.18,429,198.76Z" style="fill:#263238"></path><path d="M342.76,246c-3.95,5.26-9.22,5.17-12.77,8-2.74,2.16-5.3,5-8.05,5.6,5.06-10,11.11-21.65,16.21-30.45C343.51,234.49,346.39,241.14,342.76,246Z" style="fill:#263238"></path><path d="M504.51,248.14c-2.14,8.22-10.16,51.49-10.45,54.93s3.87,19.57,3.87,21.28S486,348.93,486,348.93l-1.11-2.82-2.53,2.63a11.52,11.52,0,0,1,1-3.44c.67-1.05,2.39-3.53,2.39-3.53s-.48-12.42-1.15-15.77-14.71-20.44-17.86-28.66-1.82-30-1.34-34.2S505.11,245.84,504.51,248.14Z" style="fill:#03550A"></path><path d="M504.51,248.14c-2.14,8.22-10.16,51.49-10.45,54.93s3.87,19.57,3.87,21.28S486,348.93,486,348.93l-1.11-2.82-2.53,2.63a11.52,11.52,0,0,1,1-3.44c.67-1.05,2.39-3.53,2.39-3.53s-.48-12.42-1.15-15.77-14.71-20.44-17.86-28.66-1.82-30-1.34-34.2S505.11,245.84,504.51,248.14Z" style="fill:#fff;opacity:0.6000000000000001"></path><path d="M467.7,299.49c-1.83-4.62-3.77-9.1-4.6-14l-1-4.83c-.93-4-1.85-8.05-2.87-12a10.8,10.8,0,0,0-.76-2.42,16.39,16.39,0,0,0-3.47-3.58c1.74,1.8,3.44,3.52,3.63,6.12l.48,2.43c.95,4.67,2.07,9.84,3.18,14.51.9,4.89,3.12,9.47,5.45,13.81Z" style="opacity:0.1"></path><path d="M493.75,198.38c5.28,2.18,12.25,6.19,15.31,9.25s13.38,31.91,16,36.21,18.24,14.33,18.24,14.33l-1.14,1.15s-14.43-7.93-18.54-13.86-15-29.42-17.86-30.09Z" style="fill:#03550A"></path><path d="M493.75,198.38c5.28,2.18,12.25,6.19,15.31,9.25s13.38,31.91,16,36.21,18.24,14.33,18.24,14.33l-1.14,1.15s-14.43-7.93-18.54-13.86-15-29.42-17.86-30.09Z" style="fill:#fff;opacity:0.6000000000000001"></path><path d="M543.26,258.17c3.73-1.24,7.84,1.53,8.7,2.58s1.53,6.5,1.53,7.45-2.3-1.66-2.3-1.66,2.1,10.83,1,11.31-7.07-8.5-7.07-8.5.28,2.29-.19,2.48-3.16-3.91-3.73-6.11,1-6.4,1-6.4Z" style="fill:#263238"></path><path d="M391.21,263.62s-1.36,14.95-.19,18.53c.68,2.06,16.41,35.54,16.41,37.26s-11.93,29.52-11.93,29.52l-1.11-2.82-2.53,2.63a11.52,11.52,0,0,1,1-3.44c.67-1.05,2.39-3.53,2.39-3.53s-.48-12.42-1.15-15.77-22-21-27.92-28.75-23.07-29-25.56-34.11C338.76,259.33,391.81,261.32,391.21,263.62Z" style="fill:#03550A"></path><path d="M391.21,263.62s-1.36,14.95-.19,18.53c.68,2.06,16.41,35.54,16.41,37.26s-11.93,29.52-11.93,29.52l-1.11-2.82-2.53,2.63a11.52,11.52,0,0,1,1-3.44c.67-1.05,2.39-3.53,2.39-3.53s-.48-12.42-1.15-15.77-22-21-27.92-28.75-23.07-29-25.56-34.11C338.76,259.33,391.81,261.32,391.21,263.62Z" style="fill:#fff;opacity:0.6000000000000001"></path><path d="M399.42,300.78c-2-5.75-4.88-11.21-7-16.9-.21-5.36,1.07-10.69,1.69-16-1.35,5.27-2.78,10.67-2.62,16.14a3.87,3.87,0,0,0,.31,1.17c2.45,5.25,4.88,10.51,7.62,15.61Z" style="opacity:0.1"></path><path d="M296.91,286.79c-3.09,1.86-7.59,8.61-10.06,11.6s-17.29,2.5-17.2,1.86,6.27-10.6,9.31-12.28,10.81.27,16.14-2.45Z" style="fill:#03550A"></path><path d="M296.91,286.79c-3.09,1.86-7.59,8.61-10.06,11.6s-17.29,2.5-17.2,1.86,6.27-10.6,9.31-12.28,10.81.27,16.14-2.45Z" style="fill:#fff;opacity:0.30000000000000004"></path><path d="M338.68,278.5c3.52,1.4,12,.87,16.08,1s13.09,12.85,12.51,13.18-12.85,1.51-16.19,0-6.65-9.2-12.31-11.92Z" style="fill:#03550A"></path><path d="M338.68,278.5c3.52,1.4,12,.87,16.08,1s13.09,12.85,12.51,13.18-12.85,1.51-16.19,0-6.65-9.2-12.31-11.92Z" style="fill:#fff;opacity:0.6000000000000001"></path><path d="M338.68,278.5c3.95,1.2,8.63.72,12.73.76l2.14,0a6.55,6.55,0,0,1,2.21.22c4,1.89,6.59,5.6,9.28,8.92a25.36,25.36,0,0,1,2.53,3.88.88.88,0,0,1,.09.43c0,.28-.24.38-.49.44a59.89,59.89,0,0,1-7.8.65c-2.88,0-5.82.26-8.59-.87-2.31-1.3-4.13-4.4-5.79-6.36a20.11,20.11,0,0,0-6.22-5.72,20.27,20.27,0,0,1,6.5,5.48c1.62,1.8,3.63,5,5.77,6.09,2.61,1,5.56.7,8.31.69a56.5,56.5,0,0,0,7.69-.7h0a.3.3,0,0,0-.16.24,45.22,45.22,0,0,0-8-10.22,12.22,12.22,0,0,0-3.36-2.41c-5.39-.67-11.42.29-16.87-1.5Z" style="fill:#263238"></path><path d="M363.3,290.65a60,60,0,0,0-6.29-6.47,7.14,7.14,0,0,0-2.68-1.65c-4-.72-7.95-.46-11.72-2l-1.75-.51a46.23,46.23,0,0,1,4.84,5.45c1.68,2.15,3.44,4.92,6.32,5.54a20.89,20.89,0,0,0,2.81.28c1.87.05,3.73,0,5.58-.1a53.18,53.18,0,0,1-8.27-.74c-2.65-.74-4.12-3.41-5.74-5.48a37.32,37.32,0,0,0-3.61-4.33l-.49.78c3.75,1.48,8,1.24,11.91,1.79,3.42,1.44,6.28,4.95,9.09,7.4Z" style="opacity:0.1"></path><path d="M337,283.31s17.76-12.49,18.72-15.11-1.2-27-2.58-27.74c-1.09-.61-5.13,17.19-6.6,19.76-2.17,3.78-16.06,11-16.06,11Z" style="fill:#03550A"></path><path d="M337,283.31s17.76-12.49,18.72-15.11-1.2-27-2.58-27.74c-1.09-.61-5.13,17.19-6.6,19.76-2.17,3.78-16.06,11-16.06,11Z" style="opacity:0.30000000000000004"></path><path d="M294.72,288.37s-18.38-6.14-19.87-8.13S269,256.85,270,255.84c.77-.8,8.78,13.4,10.69,15.22,2.82,2.69,16.56,5.34,16.56,5.34Z" style="fill:#03550A"></path><path d="M294.72,288.37s-18.38-6.14-19.87-8.13S269,256.85,270,255.84c.77-.8,8.78,13.4,10.69,15.22,2.82,2.69,16.56,5.34,16.56,5.34Z" style="opacity:0.30000000000000004"></path><path d="M338.86,273.37s14.13,33.21,9.86,42-22.35,15.81-23.18,16.54-10.21,13.33-14.31,14.68-17.78.27-20.63-.92c-1.25-.53-5.44-10.29-5.68-12.12-.16-1.24,4.76-7.18,4.73-8.7s.86-46.22,4-49.24S329.56,261.06,338.86,273.37Z" style="fill:#03550A"></path><path d="M338.86,273.37s14.13,33.21,9.86,42-22.35,15.81-23.18,16.54-10.21,13.33-14.31,14.68-17.78.27-20.63-.92c-1.25-.53-5.44-10.29-5.68-12.12-.16-1.24,4.76-7.18,4.73-8.7s.86-46.22,4-49.24S329.56,261.06,338.86,273.37Z" style="fill:#fff;opacity:0.6000000000000001"></path><path d="M319.66,314.58c0-.12.29.07.31.2.68,3,2,6.22,5.18,6.42.1,0,.13.16,0,.17C321.49,321.86,319.78,317.51,319.66,314.58Z" style="fill:#263238"></path><path d="M321.71,310.75c5.09-1.74,8,7.62,3.31,9.23S317.46,312.21,321.71,310.75Z" style="fill:#263238"></path><path d="M290.6,345.69c2.84,1.18,16.52,2.28,20.63.92a8.26,8.26,0,0,0,2.4-1.48c1.93-3.25.64-11.61-1.53-13.61s-11.75.53-14.59.35-7.92-3.08-10.81-1.73h0c-1,1.54-1.83,2.91-1.76,3.44C285.16,335.41,289.35,345.17,290.6,345.69Z" style="fill:#ffc4c0"></path><path d="M293.58,338.05c-.71-2.13-2.06-3.66-3-3.43s-1.15,2.14-.44,4.26,2.06,3.66,3,3.43S294.29,340.17,293.58,338.05Z" style="opacity:0.1"></path><path d="M307.72,338.91c-.18-2.42-1.3-4.24-2.5-4.08s-2,2.26-1.84,4.68,1.31,4.24,2.51,4.08S307.91,341.33,307.72,338.91Z" style="opacity:0.1"></path><path d="M317.58,268.16a19.64,19.64,0,0,1,13.84.67,103,103,0,0,0-13.84-.67Z" style="fill:#263238"></path><path d="M345.29,290.44c3.28,6.17,5.28,13.24,4.2,20.25a72,72,0,0,0-1.42-10.25c-.7-3.39-2-6.62-2.78-10Z" style="fill:#263238"></path><path d="M347.9,291.66a8.41,8.41,0,0,1,.43,6.8c-.09-2.33-.48-4.46-.43-6.8Z" style="fill:#263238"></path><path d="M324.47,267.56a4.59,4.59,0,0,1,4.7-.54,24.9,24.9,0,0,1-4.7.54Z" style="fill:#263238"></path><path d="M321.46,274.45c1.56,4.18,2.38,8.76.78,13.06-.8,2.18-2.42,5-4.93,5.25-3.53.41-4-5.08-4.57-7.53-.08-.32-.59-.39-.62,0-.31,3.58-1.47,8.79-4.37,11.25-1.17,1-3.19,1.61-4.58.55-1.17-.89-1.34-2.63-1.39-4a16.71,16.71,0,0,1,1-6.11.29.29,0,0,0-.53-.23,17.17,17.17,0,0,1-1.63,2.4c-.81,1-2,2.58-2.07.22-.07-1.49,1.35-3.41,2.28-4.46.17-.2-.14-.42-.31-.24a8.67,8.67,0,0,0-2.24,3.67c-.18.61-.64,2-.2,2.63.83,1.16,2.41-.62,3.52-2.16-1,3.86-1.22,9.84,3.55,9.55s6.57-6.31,7.3-10.76c.37,2.24,1,4.79,2.83,5.73,2.21,1.16,4.53-.48,5.81-2.21,3.61-4.87,3.58-9.95.61-16.6C321.6,274.28,321.38,274.25,321.46,274.45Z" style="opacity:0.2"></path></g></svg>
