<svg xmlns="http://www.w3.org/2000/svg" viewBox="0 0 750 500"><g id="freepik--background-complete--inject-14"><rect x="407.91" y="95.21" width="313.11" height="4.74" style="fill:#ebebeb"></rect><path d="M721,100c0-.16,0-.86,0-4.74v0l-313.09.21h0l.15-.23V100l-.15-.23L721,100l-313.1.24h-.16V95h.17L721,95.19h0v0C721,99.09,721,99.79,721,100Z" style="fill:#ebebeb"></path><rect x="402.76" y="113.04" width="318.25" height="4.74" style="fill:#ebebeb"></rect><path d="M721,117.78c0-.16,0-.86,0-4.74v0l-318.23.21h0l.17-.24v4.74l-.17-.23,318.25.23L402.76,118h-.16v-5.21h.18L721,113h0v0C721,116.92,721,117.62,721,117.78Z" style="fill:#ebebeb"></path><rect x="402.76" y="161.99" width="318.25" height="4.74" style="fill:#ebebeb"></rect><path d="M721,166.73c0-.16,0-.87,0-4.74v0l-318.23.21h0l.17-.23v4.74l-.17-.24,318.25.24L402.76,167h-.16v-5.21h.18L721,162h0v0C721,165.86,721,166.57,721,166.73Z" style="fill:#ebebeb"></path><rect x="428.37" y="91.84" width="6.29" height="93.35" style="fill:#ebebeb"></rect><path d="M434.66,185.2s0-.18,0-.5,0-.82,0-1.41c0-1.28,0-3.08,0-5.39,0-4.71,0-11.47-.07-19.84,0-16.79-.06-40.06-.1-66.22l.23.37h-6.29c.46-.74.13-.18.23-.34v15.21c0,5,0,9.83,0,14.54,0,9.42,0,18.28,0,26.35-.05,16.09-.08,29.05-.1,37.23l-.1-.16,4.65.09,1.22,0,.42,0a1.7,1.7,0,0,1-.39,0l-1.19,0-4.71.09h-.1v-.16c0-8.18-.06-21.14-.1-37.23,0-8.07,0-16.93,0-26.35V107.08q0-3.73,0-7.55V91.87c.11-.18-.23.34.24-.4h6.52v.37c0,26.26-.07,49.63-.1,66.49,0,8.34-.05,15.06-.07,19.75,0,2.27,0,4,0,5.31,0,.57,0,1,0,1.36A3.61,3.61,0,0,1,434.66,185.2Z" style="fill:#ebebeb"></path><rect x="512.04" y="91.84" width="6.29" height="93.35" style="fill:#ebebeb"></rect><path d="M518.33,185.2s0-.18,0-.5,0-.82,0-1.41c0-1.28,0-3.08,0-5.39,0-4.71,0-11.47-.07-19.84,0-16.79-.06-40.06-.1-66.22l.23.37H512c.46-.74.13-.18.23-.34v15.21c0,5,0,9.83,0,14.54,0,9.42,0,18.28,0,26.35,0,16.09-.08,29.05-.1,37.23L512,185l4.65.09,1.22,0,.42,0a1.7,1.7,0,0,1-.39,0l-1.19,0-4.71.09h-.1v-.16c0-8.18-.06-21.14-.1-37.23,0-8.07,0-16.93,0-26.35V107.08q0-3.73,0-7.55V91.87c.11-.18-.23.34.24-.4h6.52v.37c0,26.26-.07,49.63-.1,66.49,0,8.34-.05,15.06-.07,19.75,0,2.27,0,4,0,5.31,0,.57,0,1,0,1.36A3.61,3.61,0,0,1,518.33,185.2Z" style="fill:#ebebeb"></path><rect x="601.9" y="91.84" width="6.29" height="93.35" style="fill:#ebebeb"></rect><path d="M608.19,185.2s0-.18,0-.5,0-.82,0-1.41c0-1.28,0-3.08,0-5.39,0-4.71,0-11.47-.07-19.84,0-16.79-.06-40.06-.1-66.22l.24.37H601.9c.46-.74.13-.18.23-.34v15.21c0,5,0,9.83,0,14.54,0,9.42,0,18.28,0,26.35,0,16.09-.07,29.05-.1,37.23l-.09-.16,4.65.09,1.21,0,.43,0a1.93,1.93,0,0,1-.39,0l-1.19,0-4.71.09h-.1v-.16c0-8.18-.06-21.14-.1-37.23,0-8.07,0-16.93,0-26.35,0-4.71,0-9.57,0-14.54V91.87c.11-.18-.24.34.24-.4h6.52v.37c0,26.26-.07,49.63-.1,66.49,0,8.34-.05,15.06-.07,19.75,0,2.27,0,4,0,5.31,0,.57,0,1,0,1.36S608.19,185.21,608.19,185.2Z" style="fill:#ebebeb"></path><rect x="691.75" y="91.84" width="6.29" height="93.35" style="fill:#ebebeb"></rect><path d="M698.05,185.2a2.93,2.93,0,0,1,0-.5c0-.35,0-.82,0-1.41,0-1.28,0-3.08,0-5.39,0-4.71,0-11.47-.07-19.84,0-16.79-.06-40.06-.1-66.22l.23.37h-6.28c.46-.74.12-.18.23-.34v7.66q0,3.81,0,7.55v14.54c0,9.42,0,18.28,0,26.35,0,16.09-.08,29.05-.1,37.23l-.1-.16,4.66.09,1.21,0,.43,0a1.93,1.93,0,0,1-.39,0l-1.2,0-4.71.09h-.1v-.16c0-8.18,0-21.14-.09-37.23,0-8.07,0-16.93,0-26.35,0-4.71,0-9.57,0-14.54V91.87c.1-.18-.24.34.24-.4h6.52v.37c0,26.26-.08,49.63-.1,66.49,0,8.34,0,15.06-.07,19.75,0,2.27,0,4,0,5.31,0,.57,0,1,0,1.36S698.05,185.21,698.05,185.2Z" style="fill:#ebebeb"></path><rect x="29.36" y="95.21" width="383.59" height="4.74" style="fill:#ebebeb"></rect><path d="M412.94,100c0-.16,0-.86,0-4.74l0,0-383.56.21h0l.19-.23V100l-.19-.23,383.58.23-383.58.24h-.2V95h.22l383.56.21h0v0C413,99.09,412.94,99.79,412.94,100Z" style="fill:#ebebeb"></path><rect x="29.16" y="113.04" width="377.58" height="4.74" style="fill:#ebebeb"></rect><path d="M406.74,117.78c0-.16,0-.86,0-4.74l0,0-377.56.21h0l.19-.24v4.74l-.19-.23,377.58.23L29.16,118H29v-5.21h.21l377.56.21h0v0C406.74,116.92,406.74,117.62,406.74,117.78Z" style="fill:#ebebeb"></path><rect x="29.36" y="161.99" width="380.11" height="4.74" style="fill:#ebebeb"></rect><path d="M409.47,166.73c0-.16,0-.87,0-4.74l0,0-380.09.21h0l.19-.23v4.74l-.19-.24,380.11.24L29.36,167h-.19v-5.21h.21l380.09.21h0v0C409.47,165.86,409.47,166.57,409.47,166.73Z" style="fill:#ebebeb"></path><rect x="54.74" y="91.84" width="6.29" height="93.35" style="fill:#ebebeb"></rect><path d="M61,185.2s0-.18,0-.5,0-.82,0-1.41c0-1.28,0-3.08,0-5.39,0-4.71,0-11.47-.06-19.84,0-16.79-.06-40.06-.1-66.22l.23.37H54.74c.46-.74.13-.18.23-.34v15.21c0,5,0,9.83,0,14.54,0,9.42,0,18.28,0,26.35,0,16.09-.07,29.05-.09,37.23l-.1-.16,4.65.09,1.21,0,.43,0a1.81,1.81,0,0,1-.39,0l-1.19,0-4.71.09h-.1v-.16c0-8.18-.06-21.14-.1-37.23,0-8.07,0-16.93,0-26.35,0-4.71,0-9.57,0-14.54V91.87c.11-.18-.23.34.24-.4h6.52v.37c0,26.26-.07,49.63-.1,66.49,0,8.34,0,15.06-.07,19.75,0,2.27,0,4,0,5.31,0,.57,0,1,0,1.36S61,185.21,61,185.2Z" style="fill:#ebebeb"></path><rect x="138.41" y="91.84" width="6.29" height="93.35" style="fill:#ebebeb"></rect><path d="M144.7,185.2s0-.18,0-.5,0-.82,0-1.41c0-1.28,0-3.08,0-5.39,0-4.71,0-11.47-.06-19.84,0-16.79-.06-40.06-.1-66.22l.23.37h-6.29c.46-.74.13-.18.23-.34v15.21c0,5,0,9.83,0,14.54,0,9.42,0,18.28,0,26.35,0,16.09-.07,29.05-.09,37.23l-.1-.16,4.65.09,1.21,0,.43,0a1.81,1.81,0,0,1-.39,0l-1.19,0-4.71.09h-.1v-.16c0-8.18-.06-21.14-.1-37.23,0-8.07,0-16.93,0-26.35,0-4.71,0-9.57,0-14.54V91.87c.11-.18-.23.34.24-.4h6.52v.37c0,26.26-.07,49.63-.1,66.49,0,8.34-.05,15.06-.07,19.75,0,2.27,0,4,0,5.31,0,.57,0,1,0,1.36S144.7,185.21,144.7,185.2Z" style="fill:#ebebeb"></path><rect x="228.26" y="91.84" width="6.29" height="93.35" style="fill:#ebebeb"></rect><path d="M234.56,185.2s0-.18,0-.5,0-.82,0-1.41c0-1.28,0-3.08,0-5.39,0-4.71,0-11.47-.07-19.84,0-16.79-.06-40.06-.1-66.22l.24.37h-6.29c.46-.74.13-.18.23-.34v15.21c0,5,0,9.83,0,14.54,0,9.42,0,18.28,0,26.35,0,16.09-.08,29.05-.1,37.23l-.1-.16,4.66.09,1.21,0,.43,0a1.93,1.93,0,0,1-.39,0l-1.2,0-4.71.09h-.1v-.16c0-8.18,0-21.14-.09-37.23,0-8.07,0-16.93,0-26.35,0-4.71,0-9.57,0-14.54V91.87c.11-.18-.24.34.24-.4h6.52v.37c0,26.26-.08,49.63-.1,66.49,0,8.34-.05,15.06-.07,19.75,0,2.27,0,4,0,5.31,0,.57,0,1,0,1.36S234.56,185.21,234.56,185.2Z" style="fill:#ebebeb"></path><rect x="318.12" y="91.84" width="6.29" height="93.35" style="fill:#ebebeb"></rect><path d="M324.41,185.2s0-.18,0-.5,0-.82,0-1.41c0-1.28,0-3.08,0-5.39,0-4.71,0-11.47-.07-19.84,0-16.79-.06-40.06-.1-66.22l.23.37h-6.29c.47-.74.13-.18.24-.34V95.7c0,1.29,0,2.56,0,3.83v22.09c0,9.42,0,18.28,0,26.35,0,16.09-.08,29.05-.1,37.23l-.1-.16,4.65.09,1.22,0,.42,0a1.7,1.7,0,0,1-.39,0l-1.19,0-4.71.09H318v-.16c0-8.18,0-21.14-.1-37.23,0-8.07,0-16.93,0-26.35,0-4.71,0-9.57,0-14.54V91.87c.1-.18-.24.34.23-.4h6.53v.37c0,26.26-.08,49.63-.1,66.49,0,8.34-.06,15.06-.07,19.75,0,2.27,0,4,0,5.31,0,.57,0,1,0,1.36A3.61,3.61,0,0,1,324.41,185.2Z" style="fill:#ebebeb"></path><path d="M98.3,66.13h.15v0c-.27-.55-4.88-10.52-.26-12.78s11.63,2.32,11.63,2.32-4.33-19,7.9-22.09,20.82,19.19,20.82,19.19,5.68-6.93,7.93,4.77c0,0,14.73-4.76,15.86,11.59,0,0,4.9-3.05,4.34,1.43l-.11.69-79.3.19S95,66,98.3,66.13Z" style="fill:#ebebeb;fill-rule:evenodd"></path><path d="M195.1,50.31h.08c-.16-.32-2.83-6-.15-7.28s6.74,1.32,6.74,1.32-2.51-10.83,4.59-12.59,12.08,10.93,12.08,10.93,3.3-3.94,4.6,2.72c0,0,8.55-2.71,9.2,6.61,0,0,2.85-1.74,2.52.81l-.06.4-46,.1S193.16,50.24,195.1,50.31Z" style="fill:#f5f5f5;fill-rule:evenodd"></path><path d="M622.85,47.36h.08c-.15-.31-2.83-6-.15-7.28s6.75,1.32,6.75,1.32S627,30.56,634.11,28.8,646.2,39.74,646.2,39.74s3.29-4,4.59,2.71c0,0,8.55-2.7,9.21,6.61,0,0,2.84-1.74,2.52.82l-.07.39-46,.11S620.92,47.29,622.85,47.36Z" style="fill:#f5f5f5;fill-rule:evenodd"></path><path d="M378,69.22h.09v0c-.18-.37-3.32-7-.18-8.54s7.91,1.55,7.91,1.55-2.94-12.69,5.38-14.76,14.17,12.82,14.17,12.82,3.86-4.62,5.38,3.19c0,0,10-3.17,10.79,7.75,0,0,3.34-2,3,1l-.08.46-53.94.13S375.72,69.14,378,69.22Z" style="fill:#ebebeb;fill-rule:evenodd"></path><path d="M565.71,53.29h-.14v0c.26-.54,4.93-10.44.25-12.68s-11.75,2.3-11.75,2.3S558.46,24,546.1,21,525,40,525,40s-5.73-6.87-8,4.73c0,0-14.89-4.71-16,11.51,0,0-4.95-3-4.39,1.42l.12.69,80.15.18S569.08,53.17,565.71,53.29Z" style="fill:#ebebeb;fill-rule:evenodd"></path></g><g id="freepik--Floor--inject-14"><path d="M726.94,185.36c0,.14-157.58.26-351.92.26s-352-.12-352-.26,157.55-.26,352-.26S726.94,185.21,726.94,185.36Z" style="fill:#263238"></path></g><g id="freepik--Plants--inject-14"><path d="M688.53,209.8a6.21,6.21,0,0,1,3.19,3.62,11,11,0,0,1,.43,4.91c-.36,3.18-2.17,6.39-4.12,8.93-2.68-2.34-3.29-6.42-3.48-8.5-.29-3.31,1.2-9.45,4-9" style="fill:#455a64"></path><path d="M691.14,232.51a5.28,5.28,0,0,1,1.7-5A7,7,0,0,1,698,225.9a3,3,0,0,1,2.26,1,2.27,2.27,0,0,1,0,2.28,4.61,4.61,0,0,1-1.68,1.66c-2.33,1.46-4.84,2.44-7.47,1.65" style="fill:#455a64"></path><path d="M687.71,242.27a3.42,3.42,0,0,1,.09-.66c.09-.46.2-1.05.33-1.76A18.26,18.26,0,0,1,690,234.2a11.3,11.3,0,0,1,4-4.3,7.53,7.53,0,0,1,1.65-.73,3.28,3.28,0,0,1,.48-.12.72.72,0,0,1,.17,0,13.26,13.26,0,0,0-2.21,1,11.67,11.67,0,0,0-3.94,4.28,20.08,20.08,0,0,0-1.86,5.56c-.16.74-.29,1.34-.4,1.75A4.7,4.7,0,0,1,687.71,242.27Z" style="fill:#263238"></path><path d="M687.81,214.58a1.11,1.11,0,0,1,0,.29c0,.21,0,.48,0,.82,0,.71.08,1.74.12,3,.09,2.55.15,6.08.13,10s-.11,7.42-.21,10c-.06,1.28-.11,2.31-.15,3,0,.34,0,.61-.06.82a1.11,1.11,0,0,1,0,.29,1.29,1.29,0,0,1,0-.29c0-.21,0-.49,0-.82,0-.74,0-1.77.07-3,.06-2.55.13-6.07.15-10s0-7.41-.06-10c0-1.26,0-2.28-.05-3v-.82A1.29,1.29,0,0,1,687.81,214.58Z" style="fill:#263238"></path><path d="M686.51,234.45a12.28,12.28,0,0,0-6.72-9c-.89-.43-2.06-.71-2.8-.05s-.57,1.87-.21,2.79a10.5,10.5,0,0,0,9.67,6.53" style="fill:#455a64"></path><path d="M680.22,228.45a4.14,4.14,0,0,1,.57.25c.18.09.4.19.65.34a8.26,8.26,0,0,1,.81.52,8.76,8.76,0,0,1,.94.7,13.3,13.3,0,0,1,1,.9,14.7,14.7,0,0,1,1.89,2.44,12.58,12.58,0,0,1,1.56,4.12,11.42,11.42,0,0,1,.16,1.16,8.45,8.45,0,0,1,0,1,4.2,4.2,0,0,1,0,.73,2.83,2.83,0,0,1-.07.61s0-.88-.11-2.29a10.83,10.83,0,0,0-.19-1.14,12.1,12.1,0,0,0-.33-1.28,13.6,13.6,0,0,0-1.24-2.76,14.29,14.29,0,0,0-1.85-2.41,13,13,0,0,0-1-.9c-.31-.28-.63-.51-.91-.72C681,228.87,680.2,228.5,680.22,228.45Z" style="fill:#263238"></path><path d="M101.18,152.4a6.22,6.22,0,0,1,3.2,3.62,10.86,10.86,0,0,1,.42,4.91c-.36,3.18-2.17,6.39-4.12,8.93-2.67-2.34-3.29-6.42-3.47-8.5-.29-3.31,1.19-9.45,4-9" style="fill:#455a64"></path><path d="M103.8,175.11a5.26,5.26,0,0,1,1.7-5,7,7,0,0,1,5.15-1.61,3,3,0,0,1,2.26,1,2.24,2.24,0,0,1,0,2.28,4.49,4.49,0,0,1-1.69,1.66c-2.32,1.46-4.84,2.44-7.46,1.65" style="fill:#455a64"></path><path d="M100.36,184.87a4.2,4.2,0,0,1,.1-.66c.08-.46.19-1.05.32-1.76a18.59,18.59,0,0,1,1.83-5.65,11.3,11.3,0,0,1,4-4.3,7.82,7.82,0,0,1,1.65-.73,3.22,3.22,0,0,1,.47-.12.72.72,0,0,1,.17,0,13.7,13.7,0,0,0-2.21,1,11.57,11.57,0,0,0-3.93,4.28,19.81,19.81,0,0,0-1.87,5.56c-.16.74-.29,1.34-.39,1.75A2.69,2.69,0,0,1,100.36,184.87Z" style="fill:#263238"></path><path d="M100.46,157.18a1.36,1.36,0,0,1,0,.29c0,.21,0,.48,0,.82,0,.71.08,1.74.12,3,.08,2.55.14,6.08.13,10s-.12,7.42-.22,10c0,1.28-.1,2.31-.15,3l-.05.82a1.36,1.36,0,0,1,0,.29,1.29,1.29,0,0,1,0-.29c0-.21,0-.49,0-.82,0-.74,0-1.77.08-3,.06-2.55.13-6.07.15-10s0-7.41-.07-10c0-1.25,0-2.28,0-3v-.82C100.45,157.28,100.46,157.18,100.46,157.18Z" style="fill:#263238"></path><path d="M99.16,177.05a12.28,12.28,0,0,0-6.72-9c-.89-.43-2.06-.71-2.8,0s-.57,1.87-.21,2.79a10.5,10.5,0,0,0,9.67,6.53" style="fill:#455a64"></path><path d="M92.88,171.05a4.14,4.14,0,0,1,.57.25,7,7,0,0,1,.64.34,9.69,9.69,0,0,1,.82.52,8.7,8.7,0,0,1,.93.7,10.3,10.3,0,0,1,1,.91A12.72,12.72,0,0,1,100,179a10.67,10.67,0,0,1,.31,1.31,9.15,9.15,0,0,1,.16,1.16,8.75,8.75,0,0,1,0,1c0,.28,0,.53,0,.73a3.73,3.73,0,0,1-.07.61c-.06,0,0-.88-.12-2.29a11.27,11.27,0,0,0-.19-1.14,12.1,12.1,0,0,0-.33-1.28,13.6,13.6,0,0,0-1.24-2.76,14.26,14.26,0,0,0-1.84-2.41,13.11,13.11,0,0,0-1-.9,10.56,10.56,0,0,0-.91-.72C93.66,171.47,92.86,171.1,92.88,171.05Z" style="fill:#263238"></path><path d="M456.19,152.4a6.18,6.18,0,0,1,3.19,3.62,10.87,10.87,0,0,1,.43,4.91c-.36,3.18-2.17,6.39-4.12,8.93-2.68-2.34-3.29-6.42-3.47-8.5-.29-3.31,1.19-9.45,4-9" style="fill:#455a64"></path><path d="M458.81,175.11a5.26,5.26,0,0,1,1.7-5,7,7,0,0,1,5.15-1.61,3,3,0,0,1,2.26,1,2.24,2.24,0,0,1,0,2.28,4.56,4.56,0,0,1-1.69,1.66c-2.32,1.46-4.84,2.44-7.46,1.65" style="fill:#455a64"></path><path d="M455.37,184.87a4.2,4.2,0,0,1,.1-.66c.08-.46.19-1.05.32-1.76a18.59,18.59,0,0,1,1.83-5.65,11.3,11.3,0,0,1,4.05-4.3,7.82,7.82,0,0,1,1.65-.73,2.93,2.93,0,0,1,.47-.12.72.72,0,0,1,.17,0,13.26,13.26,0,0,0-2.21,1,11.57,11.57,0,0,0-3.93,4.28,19.81,19.81,0,0,0-1.87,5.56c-.16.74-.29,1.34-.39,1.75A3.44,3.44,0,0,1,455.37,184.87Z" style="fill:#263238"></path><path d="M455.47,157.18a1.36,1.36,0,0,1,0,.29c0,.21,0,.48,0,.82,0,.71.08,1.74.13,3,.08,2.55.14,6.08.13,10s-.12,7.42-.22,10c0,1.28-.1,2.31-.15,3,0,.34,0,.61-.05.82a1.36,1.36,0,0,1,0,.29,1.29,1.29,0,0,1,0-.29c0-.21,0-.49,0-.82,0-.74,0-1.77.08-3,.06-2.55.13-6.07.14-10s0-7.41-.06-10c0-1.25,0-2.28-.05-3v-.82C455.46,157.28,455.47,157.18,455.47,157.18Z" style="fill:#263238"></path><path d="M454.17,177.05a12.28,12.28,0,0,0-6.72-9c-.89-.43-2.06-.71-2.8,0s-.57,1.87-.21,2.79a10.5,10.5,0,0,0,9.67,6.53" style="fill:#455a64"></path><path d="M447.89,171.05a4.89,4.89,0,0,1,.57.25,7,7,0,0,1,.64.34,9.69,9.69,0,0,1,.82.52,9.83,9.83,0,0,1,.93.7,10.3,10.3,0,0,1,1,.91A12.72,12.72,0,0,1,455,179a12.88,12.88,0,0,1,.31,1.31,9.15,9.15,0,0,1,.16,1.16c.05.36,0,.69.05,1s0,.53,0,.73a3.73,3.73,0,0,1-.07.61c-.06,0,0-.88-.12-2.29a11.27,11.27,0,0,0-.19-1.14,12.1,12.1,0,0,0-.33-1.28,13.6,13.6,0,0,0-1.24-2.76,13.78,13.78,0,0,0-1.85-2.41,11.3,11.3,0,0,0-1-.9c-.31-.28-.63-.51-.91-.72C448.67,171.47,447.86,171.1,447.89,171.05Z" style="fill:#263238"></path><path d="M602.52,307.21a12,12,0,0,1-2.53-3.87,12.11,12.11,0,0,1-1.36-4.41c.15,0,.76,1.92,1.84,4.19S602.64,307.12,602.52,307.21Z" style="fill:#263238"></path><path d="M604.81,306.83a57.66,57.66,0,0,1-1.79-11,59.85,59.85,0,0,1,1.79,11Z" style="fill:#263238"></path><path d="M611.43,295.9c.14.07-.94,2.32-1.73,5.26s-1,5.41-1.2,5.4a19.43,19.43,0,0,1,2.93-10.66Z" style="fill:#263238"></path><path d="M333.6,403.71a16.56,16.56,0,0,1-3.89-8.28c.15,0,.76,1.92,1.83,4.19S333.72,403.62,333.6,403.71Z" style="fill:#263238"></path><path d="M335.88,403.33a59.85,59.85,0,0,1-1.79-11,57.66,57.66,0,0,1,1.79,11Z" style="fill:#263238"></path><path d="M342.51,392.4c.14.07-.94,2.32-1.74,5.26s-1,5.41-1.19,5.4a19.43,19.43,0,0,1,2.93-10.66Z" style="fill:#263238"></path><path d="M455.33,463.15a47.76,47.76,0,0,1-3.75-5.8,45.16,45.16,0,0,1-3.3-6.06,46.18,46.18,0,0,1,3.75,5.79A44.22,44.22,0,0,1,455.33,463.15Z" style="fill:#263238"></path><path d="M458.16,446.74c.17,0-.44,3.67-.25,8.19s1,8.12.87,8.15a9.22,9.22,0,0,1-.68-2.32,34.21,34.21,0,0,1-.44-11.65A9.47,9.47,0,0,1,458.16,446.74Z" style="fill:#263238"></path><path d="M467.29,448.13a10.53,10.53,0,0,1-.37,2.2c-.28,1.35-.66,3.21-1,5.27s-.68,3.94-.9,5.29a9.89,9.89,0,0,1-.45,2.2,9.41,9.41,0,0,1,.08-2.24c.13-1.38.38-3.27.76-5.34s.82-3.93,1.19-5.26A8.32,8.32,0,0,1,467.29,448.13Z" style="fill:#263238"></path><path d="M436.46,249a45.09,45.09,0,0,1-3.75-5.8,47.47,47.47,0,0,1-3.31-6.06,46.18,46.18,0,0,1,3.75,5.79A46.42,46.42,0,0,1,436.46,249Z" style="fill:#263238"></path><path d="M439.29,232.6c.16,0-.45,3.67-.26,8.19s1,8.12.88,8.15a8.74,8.74,0,0,1-.68-2.32,34.56,34.56,0,0,1-.45-11.65A8.54,8.54,0,0,1,439.29,232.6Z" style="fill:#263238"></path><path d="M448.41,234a10.56,10.56,0,0,1-.37,2.21c-.27,1.35-.66,3.21-1,5.27s-.68,3.93-.9,5.29a10.7,10.7,0,0,1-.44,2.19,8.7,8.7,0,0,1,.08-2.23c.12-1.38.37-3.27.75-5.35s.83-3.93,1.2-5.26A9,9,0,0,1,448.41,234Z" style="fill:#263238"></path><path d="M705.45,437.84a45.09,45.09,0,0,1-3.75-5.8,47.47,47.47,0,0,1-3.31-6.06,43.67,43.67,0,0,1,3.75,5.79A46.42,46.42,0,0,1,705.45,437.84Z" style="fill:#263238"></path><path d="M708.28,421.43c.16,0-.45,3.67-.26,8.19s1,8.12.88,8.15a9.22,9.22,0,0,1-.68-2.32,34.56,34.56,0,0,1-.45-11.65A8.54,8.54,0,0,1,708.28,421.43Z" style="fill:#263238"></path><path d="M717.4,422.81A10.88,10.88,0,0,1,717,425c-.28,1.35-.67,3.21-1,5.27s-.68,3.93-.9,5.29a10.7,10.7,0,0,1-.44,2.19,8.7,8.7,0,0,1,.08-2.23c.12-1.38.37-3.27.75-5.35s.83-3.93,1.2-5.26A9,9,0,0,1,717.4,422.81Z" style="fill:#263238"></path><path d="M267.8,285a34.69,34.69,0,0,1-3.37-5.06,36.13,36.13,0,0,1-2.92-5.34,35.44,35.44,0,0,1,3.37,5.07A36.93,36.93,0,0,1,267.8,285Z" style="fill:#263238"></path><path d="M270.52,283.8a33.57,33.57,0,0,1-2.12-5.54,33.21,33.21,0,0,1-1.63-5.7,32.79,32.79,0,0,1,2.12,5.53A34.3,34.3,0,0,1,270.52,283.8Z" style="fill:#263238"></path><path d="M272.85,284.07a23,23,0,0,1-.1-5.94,22.18,22.18,0,0,1,1-5.87c.15,0-.21,2.65-.45,5.91S273,284.07,272.85,284.07Z" style="fill:#263238"></path><path d="M698.58,300.91a70.6,70.6,0,0,1-6.29-10.41,36.92,36.92,0,0,1,3.37,5.07A37.3,37.3,0,0,1,698.58,300.91Z" style="fill:#263238"></path><path d="M701.3,299.67a32.79,32.79,0,0,1-2.12-5.53,33.17,33.17,0,0,1-1.63-5.71,33.57,33.57,0,0,1,2.12,5.54A34.35,34.35,0,0,1,701.3,299.67Z" style="fill:#263238"></path><path d="M703.63,300a22.56,22.56,0,0,1-.1-5.95,22.16,22.16,0,0,1,1-5.86c.14,0-.21,2.65-.45,5.9S703.78,300,703.63,300Z" style="fill:#263238"></path><path d="M194.43,338.14a70.6,70.6,0,0,1-6.29-10.41,70.6,70.6,0,0,1,6.29,10.41Z" style="fill:#263238"></path><path d="M197.15,336.9a33.57,33.57,0,0,1-2.12-5.54,33,33,0,0,1-1.63-5.7,32.69,32.69,0,0,1,2.12,5.54A34.06,34.06,0,0,1,197.15,336.9Z" style="fill:#263238"></path><path d="M199.48,337.18a23.16,23.16,0,0,1-.1-5.95,22.4,22.4,0,0,1,1-5.87c.15,0-.21,2.65-.45,5.91S199.63,337.17,199.48,337.18Z" style="fill:#263238"></path><path d="M57.26,221.87a30.64,30.64,0,0,1-2.39-5.09A30.87,30.87,0,0,1,53,211.49a29.72,29.72,0,0,1,2.39,5.09A30.87,30.87,0,0,1,57.26,221.87Z" style="fill:#263238"></path><path d="M59,219.52a21.65,21.65,0,0,1-.68-4.59,21.11,21.11,0,0,1-.16-4.63,20.07,20.07,0,0,1,.68,4.58A19.81,19.81,0,0,1,59,219.52Z" style="fill:#263238"></path><path d="M62.48,221.51a26.57,26.57,0,0,1,.48-5.22,26.7,26.7,0,0,1,1-5.14,25.68,25.68,0,0,1-.48,5.22A26.7,26.7,0,0,1,62.48,221.51Z" style="fill:#263238"></path><path d="M483.8,382.12a6.14,6.14,0,0,1,3.2,3.61,10.86,10.86,0,0,1,.42,4.91c-.36,3.18-2.17,6.39-4.11,8.93-2.68-2.34-3.3-6.41-3.48-8.5-.29-3.3,1.19-9.45,4-8.95" style="fill:#455a64"></path><path d="M486.42,404.82a5.26,5.26,0,0,1,1.7-5,7,7,0,0,1,5.15-1.61,2.94,2.94,0,0,1,2.26,1,2.24,2.24,0,0,1,0,2.28,4.49,4.49,0,0,1-1.69,1.66c-2.32,1.46-4.83,2.44-7.46,1.65" style="fill:#455a64"></path><path d="M483,414.58a3.37,3.37,0,0,1,.09-.65c.09-.46.19-1.06.32-1.77a18.59,18.59,0,0,1,1.83-5.65,11.3,11.3,0,0,1,4-4.3,7.82,7.82,0,0,1,1.65-.73,4.71,4.71,0,0,1,.48-.12c.11,0,.16,0,.17,0a12,12,0,0,0-2.22,1,11.66,11.66,0,0,0-3.93,4.28,19.75,19.75,0,0,0-1.86,5.56c-.17.74-.3,1.34-.4,1.75A4.18,4.18,0,0,1,483,414.58Z" style="fill:#263238"></path><path d="M483.09,386.89a2.25,2.25,0,0,1,0,.29c0,.21,0,.48.05.82,0,.71.08,1.74.12,3,.08,2.55.15,6.07.13,10s-.11,7.42-.22,10c-.05,1.27-.1,2.3-.14,3,0,.34-.05.61-.06.82a1.36,1.36,0,0,1,0,.29s0-.1,0-.29,0-.48,0-.82c0-.74.05-1.77.08-3,.06-2.55.13-6.07.15-10s0-7.41-.07-10c0-1.25,0-2.28,0-3,0-.34,0-.61,0-.82A.94.94,0,0,1,483.09,386.89Z" style="fill:#263238"></path><path d="M481.79,406.76a12.31,12.31,0,0,0-6.72-9c-.9-.43-2.07-.71-2.8-.05s-.58,1.87-.21,2.79a10.5,10.5,0,0,0,9.66,6.53" style="fill:#455a64"></path><path d="M475.5,400.76a4.14,4.14,0,0,1,.57.25,7,7,0,0,1,.64.34c.24.16.53.3.82.52a9.89,9.89,0,0,1,.94.7,11.56,11.56,0,0,1,1,.91,13.27,13.27,0,0,1,1.89,2.43,13,13,0,0,1,1.25,2.82,10.12,10.12,0,0,1,.31,1.3,9.17,9.17,0,0,1,.17,1.17c0,.35,0,.68,0,1s0,.53,0,.73a2.58,2.58,0,0,1-.07.61s0-.88-.12-2.29a11.08,11.08,0,0,0-.18-1.14c-.08-.41-.2-.83-.33-1.28a13.26,13.26,0,0,0-3.09-5.16c-.33-.33-.65-.65-1-.91s-.62-.51-.9-.72C476.28,401.18,475.48,400.81,475.5,400.76Z" style="fill:#263238"></path></g><g id="freepik--Mud--inject-14"><path d="M321.28,473.13c29.24,3.15,45.48-.75,65.38-6.09,9.41-2.52,11.95-4.41,15.39-6.26,4.5-2.43,8.37-8.62-2.31-13.25A34.47,34.47,0,0,0,389.22,445c-14.79-1.36-29.69-2.08-44.61-2.15H322.22c-18.61.31-47.43,3.07-58.82,8.59a5.65,5.65,0,0,0-2.64,2.3c-1.86,3.55,3.84,6,8.73,6.48,6.42.6,12.92-.43,19.41-.51.82,0,1.65,0,2.49,0,6.82.27,12.67,3.23,15.84,7.4C308.68,469,313.2,472.26,321.28,473.13Z" style="fill:#ae7461"></path><ellipse cx="286.81" cy="472.94" rx="9.82" ry="3.9" style="fill:#ae7461"></ellipse></g><g id="freepik--Cow--inject-14"><path d="M346.1,175.42c0,.55,3.13,13,2.85,17.82s-.78,11.94-1.17,14.33-5.35,15.52-6.82,17.73-10.2,10.28-10.2,10.28l14.61-.64s-.46-4.32,5-5c0,0,3.4-10.29,4.87-15.71s9.46-25.8,10.56-27.64-.55-3.95-2-10.56-6.8-8.36-7.26-8.18S346.1,175.42,346.1,175.42Z" style="fill:#e0e0e0"></path><path d="M330.69,235.61l.06-.05c.08-.08,8.74-8.1,10.19-10.28s6.43-15.37,6.81-17.71.87-9,1.17-14.33c.22-3.74-1.57-11.87-2.42-15.78-.26-1.15-.42-1.91-.42-2h0c.4-.3,9.92-7.35,10.38-7.53l.1,0a4.54,4.54,0,0,1,1.71.6,11.06,11.06,0,0,1,5.48,7.61c.55,2.47,1.12,4.28,1.57,5.74.77,2.45,1.15,3.68.45,4.84-1.09,1.83-9,22.09-10.56,27.64-1.45,5.36-4.83,15.61-4.87,15.71v0h0a5.44,5.44,0,0,0-4.49,2.7,4.67,4.67,0,0,0-.45,2.23v0h0Zm15.44-60.17c0,.15.17.9.42,2,.86,3.91,2.64,12,2.43,15.79-.3,5.29-.8,12-1.17,14.33s-5.34,15.51-6.83,17.74-9.4,9.56-10.14,10.24l14.5-.63a4.66,4.66,0,0,1,.45-2.23,5.46,5.46,0,0,1,4.52-2.73c.15-.47,3.43-10.44,4.86-15.69,1.51-5.56,9.47-25.83,10.57-27.66.68-1.14.3-2.36-.46-4.8-.45-1.46-1-3.27-1.57-5.74a11,11,0,0,0-5.45-7.57,4.52,4.52,0,0,0-1.69-.59h-.08C356.05,168.1,346.52,175.15,346.13,175.44Z" style="fill:#263238"></path><g style="opacity:0.30000000000000004"><path d="M348,184.57s.6,4.73,2.31,6,5.31-2.23,6-3a30.79,30.79,0,0,1,4.61-3c.31-.1,4.46-2.56,4.46-2.56l-2-6.83-12.95,1.48-4.06,2.58Z"></path></g><path d="M246.81,178.73c.1.55,6.2,16,7.72,18.07s2.51,1.53,3.6,4.25,2.94,15.89,3.15,18a10.21,10.21,0,0,1-.87,4.46l-4.75,6s9,.56,11-.42,4.24-4.79,4.24-4.79-1.85-1.85-1-4,1-2.61,1-2.61-6.42-17.52-6.42-21.44,1.2-5.23.33-8.82-4.58-22.42-4.58-22.42-11.86,4.9-12.08,5.22S246.81,178.73,246.81,178.73Z" style="fill:#e0e0e0"></path><path d="M260.89,229.62c-2.66,0-5.19-.15-5.24-.15h-.05l0,0,4.75-6a10.26,10.26,0,0,0,.87-4.44c-.22-2.07-2.08-15.26-3.16-17.95a5.09,5.09,0,0,0-1.94-2.61,7.72,7.72,0,0,1-1.65-1.63c-.86-1.17-3.12-6.52-4.4-9.61-1.69-4.12-3.27-8.19-3.33-8.47h0c0-.34,1.09-8.28,1.31-8.61s11.61-5,12.09-5.24h0v0c0,.19,3.71,18.87,4.57,22.43a10.93,10.93,0,0,1,0,5.06,21.36,21.36,0,0,0-.36,3.76c0,3.87,6.35,21.26,6.42,21.43h0s-.12.46-1,2.61.95,4,1,4l0,0h0s-2.31,3.83-4.25,4.8C265.71,229.5,263.25,229.62,260.89,229.62Zm-5.18-.21c.74.05,9,.51,10.89-.41s4.06-4.48,4.23-4.76a4,4,0,0,1-1-4.05c.8-2,.95-2.53,1-2.6-.17-.46-6.42-17.6-6.42-21.44a21.37,21.37,0,0,1,.37-3.77,11,11,0,0,0,0-5c-.84-3.48-4.39-21.51-4.57-22.39-4.1,1.69-11.87,5-12,5.2s-.92,5.72-1.3,8.58c.07.31,1.65,4.36,3.33,8.46,1.28,3.08,3.54,8.43,4.4,9.6a7.4,7.4,0,0,0,1.63,1.62,5.18,5.18,0,0,1,2,2.63c1.08,2.69,2.94,15.9,3.16,18a10.31,10.31,0,0,1-.87,4.48Z" style="fill:#263238"></path><path d="M324.12,169.42a2.54,2.54,0,0,1,.08.39,7.18,7.18,0,0,0,4,5.06c3.77,2,8.27,2.94,9,4.87s-2.2,8.17-.73,8.45a2.33,2.33,0,0,0,2.29-1s1.66,1.56,2.76-.28,1.19-4.13,2.11-5.32,5.6.18,7.62-2l1.66,1.65s-3.49,5.33-2.12,6.25,1.66.91,2.58-.19,4.5-6.52,4.5-6.52a8.13,8.13,0,0,0,6-3.21,62.42,62.42,0,0,0,3.58-5.7l-1.29-15.15L351,149.52l-13.41,1-8.91,7-2.39,4.06Z" style="fill:#ffbf9d"></path><g style="opacity:0.30000000000000004"><path d="M324.2,169.32a4.77,4.77,0,0,0,3.5-1.38c1.86-1.62,7.76-7.44,7.76-7.44s4-3.39,6.22-3.55,4-.65,6.06,0,8.24,4.76,10.58,7.51,3.58,5,5.42,5.66,2.38-2.73,2.38-2.73l-6.58-11.33-10.26-4.28-4.85-.89-6.14.73L333,153.88l-3.4,3.07-3,3.07s-1.69,3.71-1.77,4-.76,3.41-.76,3.41Z"></path></g><path d="M391.74,204.67c-1.68-8.23-1.5-18.88-3.18-25.24s-7.85-15-8.78-25.42.74-33.11.74-33.11h0c.73-4.75,1.83-12.2,1.83-13.93,0-2.59,0-16.36-7.91-19s-17.86-3.82-44.72-2.45a154.67,154.67,0,0,1-20.32-1.5c-12.54-1.64-41.59-.55-49.77,0s-24.54,4.36-33,7.22-26.73,11.32-31.36,19.91-4.37,13.36-8.87,21.27-20.86,35.45-22.63,36.82-2.59,2.59-3,2.45-2.17-2.8-7.77-.61a7,7,0,0,0-2.19,1.84,12.61,12.61,0,0,0-2,6.13,5,5,0,0,0,0,.55c.09,3.18,2.06,6,2.32,9,.27,3.13,0,5.59.82,8.45s1.9,2.18,1.9,4.23.69,22.09,0,24.4-1.43,5.87.31,6.69c1.37.64,5.66,1.12,7.4,1.29a1.48,1.48,0,0,0,1.25-.48l4.82-5.31V233a.49.49,0,0,0,.68.46c1.79-.77,6.48-3,6.82-5.31.4-2.86.68-4,.68-4s8.18-12.68,9.27-15.81,2.18-5.73,3.54-8.86,2.19-6.82,5.19-10.91,9.13-5.87,9.13-5.87l5.18-1.09a12.76,12.76,0,0,0,8.32,2.46c5-.27,12.68.95,14.45.13l1.88-.87h0c.69,6.57.58,13.46,1.21,18.17a38.18,38.18,0,0,0,1.53,7.62s-1.57,17.91-2.88,18.84a26.47,26.47,0,0,0-9,11.57l13.75-.26s1.91-4.66,3.19-5.62l2.18-1.23s.4-14.7.83-18.73-.33-6.64,2-10.67a22.26,22.26,0,0,0,2.72-7.4l2.08-23.25a56.38,56.38,0,0,1,9.47-5c6.13-2,19.09,4.37,28.63,4.91s15.68,1.5,17.45,2.18,2.73,1.37,4.37.69,2.59-1.37,3.82-1.78,10.08-4.09,10.08-4.09,5.46-10.77,10.64-13.36c3.18-1.59,6.36-2.87,8.34-3.62,3.81,1.54,8.14,3.41,10.14,5.05,3.73,3.07,10.46,7.74,12.33,13.72a65.07,65.07,0,0,0,6.92,15.33c3.55,6.16,8.87,15.51,9.86,23.73s0,24.49,0,24.49l-5.56,6.73,12.71.74s3.52-2.9,3.15-5.51-.86-4.21.24-6.26,2.21-1.18,2.21-1.18S393.42,212.89,391.74,204.67Z" style="fill:#e0e0e0"></path><path d="M391.74,204.67s.49,2.1,1.12,6.23,1.46,10.3,2.33,18.37l0,.2-.16-.12a1.14,1.14,0,0,0-1.46.28,4.87,4.87,0,0,0-.92,1.52,6.93,6.93,0,0,0-.2,3.74c.09.65.22,1.3.29,2a4.11,4.11,0,0,1-.46,2.05,11.27,11.27,0,0,1-2.73,3.38l0,0h-.05l-12.71-.74h-.25l.16-.2,5.55-6.73,0,.08c.32-6.34.59-13.18.29-20.43,0-7.34-3.05-14.66-6.86-21.79-1.9-3.6-4.12-7.14-6.09-10.95a54.13,54.13,0,0,1-2.67-6c-.38-1-.75-2.07-1.09-3.12a20.56,20.56,0,0,0-1.16-3.1c-2-4-5.59-7-9.22-9.92-3.42-3.25-7.91-5-12.39-6.86h.15q-2.87,1.1-5.78,2.41c-1,.45-2,.89-2.88,1.42a12.61,12.61,0,0,0-2.54,2,48.49,48.49,0,0,0-7.65,11.08l0,.08-.07,0L315.92,173c-.7.28-1.41.58-2.1.84a21.06,21.06,0,0,0-2,1,12.07,12.07,0,0,1-2.17.91,4,4,0,0,1-2.38-.31,18.82,18.82,0,0,0-2.15-.81c-.74-.2-1.5-.34-2.27-.48-1.53-.27-3.09-.48-4.66-.66-3.13-.35-6.32-.6-9.54-.79-6.53-.43-12.79-2.77-19.28-4.32a37.6,37.6,0,0,0-4.94-.89,11.35,11.35,0,0,0-4.92.42,62.24,62.24,0,0,0-9,4.79l.12-.19q-.65,7.25-1.31,14.68-.33,3.72-.67,7.48a14.65,14.65,0,0,1-.73,3.75A24.44,24.44,0,0,1,246.4,202a30.57,30.57,0,0,0-1.66,3.41,13.11,13.11,0,0,0-.7,3.69c-.07,1.27-.06,2.57-.16,3.87s-.24,2.57-.3,3.87c-.29,5.19-.45,10.43-.61,15.71v.15l-.13.08L240.66,234l0,0a9.3,9.3,0,0,0-1.7,2.5c-.5,1-1,2-1.41,3l-.06.16h-.18l-13.75.26h-.4l.14-.36a26.86,26.86,0,0,1,4.2-7.08,26.34,26.34,0,0,1,2.94-3c.53-.47,1.09-.92,1.67-1.34.11-.1.35-.25.35-.29a1.86,1.86,0,0,0,.2-.4,7.58,7.58,0,0,0,.29-1c.63-2.75,1-5.62,1.33-8.5s.64-5.78.9-8.7l0,.12a39.8,39.8,0,0,1-1.31-6.09,61.52,61.52,0,0,1-.64-6.25c-.23-4.21-.32-8.46-.73-12.73l0-.4,0-.2v-.18h0c-.06,0,.13.33.33.24l-.67.31a12.79,12.79,0,0,1-1.53.66,13.83,13.83,0,0,1-3.32.16c-2.18-.08-4.35-.26-6.53-.36-1.09-.05-2.18-.08-3.27-.07a21.85,21.85,0,0,1-3.33,0,13,13,0,0,1-6.24-2.44l.24.06L203,183.06h0a22.55,22.55,0,0,0-5.34,2.49,16.51,16.51,0,0,0-2.35,1.81,13.7,13.7,0,0,0-1.89,2.31,28,28,0,0,0-2.77,5.39c-.75,1.9-1.42,3.89-2.29,5.78s-1.62,3.83-2.35,5.79c-.38,1-.67,2-1.14,2.95s-1,1.89-1.49,2.81c-2.1,3.68-4.35,7.28-6.63,10.87l-.73,1.14,0-.09c-.14.8-.27,1.6-.41,2.4l-.21,1.19a3.74,3.74,0,0,1-.38,1.25,6.45,6.45,0,0,1-1.72,1.84,16.55,16.55,0,0,1-2,1.34c-.7.4-1.42.76-2.14,1.09l-.54.25-.3.12a.69.69,0,0,1-.45,0,.76.76,0,0,1-.55-.67v-5.19l.49.19-4.08,4.5-.51.56a2.89,2.89,0,0,1-.62.57,1.7,1.7,0,0,1-.85.26c-.32,0-.53-.05-.8-.07-1-.1-2-.22-3-.37a25.61,25.61,0,0,1-3-.58,3,3,0,0,1-1.48-.73,2.74,2.74,0,0,1-.62-1.53,9.89,9.89,0,0,1,.22-3.08,28.38,28.38,0,0,0,.64-2.91c.25-4,.14-8,.1-11.94s-.18-7.93-.26-11.87a1.91,1.91,0,0,0-.53-1.17,5.77,5.77,0,0,1-.87-1.28,11.7,11.7,0,0,1-.84-2.9,53.81,53.81,0,0,1-.4-5.9,16.6,16.6,0,0,0-1.36-5.59,12.1,12.1,0,0,1-1-5.83,13.18,13.18,0,0,1,2.09-5.53,8.25,8.25,0,0,1,1.06-1.07,4.35,4.35,0,0,1,1.3-.82,13.93,13.93,0,0,1,2.85-.76,6.85,6.85,0,0,1,3,.21,4.9,4.9,0,0,1,1.35.68,7.32,7.32,0,0,1,.58.45c.14.1.05.06.08.06a.92.92,0,0,0,.21-.13c.68-.59,1.36-1.33,2.12-1.93a4.89,4.89,0,0,0,1-1c.28-.39.56-.76.83-1.15,4.23-6.33,8.1-12.85,12-19.26l5.7-9.61,2.79-4.79a54.81,54.81,0,0,0,2.56-4.85c1.53-3.31,2.5-6.83,3.73-10.25a54.29,54.29,0,0,1,2.09-5c.38-.83.81-1.62,1.23-2.43a18.25,18.25,0,0,1,1.54-2.25,37.07,37.07,0,0,1,8.1-7,85.06,85.06,0,0,1,9.17-5.3c3.13-1.58,6.3-3,9.53-4.27a95.68,95.68,0,0,1,9.81-3.17,200.52,200.52,0,0,1,19.69-4.38c1.63-.28,3.27-.5,4.91-.68s3.28-.26,4.91-.34c3.25-.17,6.49-.29,9.7-.39,6.41-.2,12.73-.32,18.94-.28a166.53,166.53,0,0,1,18.28.89c5.93.77,11.78,1.29,17.52,1.46,1.44,0,2.85,0,4.28,0l4.24-.19q4.23-.16,8.37-.24c5.51-.08,10.92-.07,16.18.35a53.3,53.3,0,0,1,15.12,3,8,8,0,0,1,1.63,1,11.24,11.24,0,0,1,1.36,1.31,13.32,13.32,0,0,1,1.93,3.18,25.57,25.57,0,0,1,1.86,7,40.5,40.5,0,0,1,.36,7c-.2,2.31-.53,4.55-.84,6.76s-.64,4.37-1,6.5q-.21,3.23-.41,6.35c-.47,8.34-.78,16.1-.56,23.24,0,7.18,2.34,13.43,4.75,18.74,1.2,2.67,2.41,5.17,3.36,7.6a29.72,29.72,0,0,1,1.67,7.09c.57,4.48.77,8.3,1.06,11.37s.55,5.4.8,7,.36,2.18.39,2.36a73.1,73.1,0,0,1-1.3-9.31c-.31-3.07-.53-6.89-1.11-11.36a29.21,29.21,0,0,0-1.69-7c-.95-2.42-2.17-4.91-3.37-7.58a64.43,64.43,0,0,1-3.32-8.69,37.26,37.26,0,0,1-1.08-4.9,49.2,49.2,0,0,1-.42-5.23c-.24-7.15.06-14.93.51-23.26.13-2.09.27-4.21.4-6.36.32-2.14.63-4.32,1-6.53s.63-4.45.82-6.73a41.8,41.8,0,0,0-.36-7,25.31,25.31,0,0,0-1.85-6.89,9.81,9.81,0,0,0-4.75-5.29,52.85,52.85,0,0,0-15-3c-5.24-.41-10.64-.42-16.15-.33-2.75,0-5.54.14-8.35.25l-4.25.19c-1.41.09-2.86.1-4.3,0-5.76-.16-11.62-.68-17.57-1.44a165.12,165.12,0,0,0-18.22-.87c-6.21,0-12.52.09-18.93.29-3.2.11-6.43.23-9.69.4-1.62.08-3.26.18-4.88.34s-3.26.41-4.89.68c-6.51,1.09-13.06,2.59-19.63,4.38a97.25,97.25,0,0,0-9.76,3.16c-3.2,1.25-6.37,2.68-9.48,4.25a88.18,88.18,0,0,0-9.11,5.27,36.45,36.45,0,0,0-8,6.94,17,17,0,0,0-1.49,2.17c-.41.8-.84,1.59-1.21,2.4a51.69,51.69,0,0,0-2.07,5c-1.23,3.4-2.2,6.94-3.75,10.3a53.18,53.18,0,0,1-2.58,4.9c-.93,1.6-1.86,3.19-2.79,4.8l-5.7,9.61c-3.87,6.42-7.73,12.92-12,19.29-.27.4-.56.78-.84,1.17a5.56,5.56,0,0,1-1.05,1.06c-.75.59-1.36,1.27-2.13,1.94a1.24,1.24,0,0,1-.4.23.56.56,0,0,1-.36,0,.83.83,0,0,1-.21-.14,6.41,6.41,0,0,0-.55-.43,4.3,4.3,0,0,0-1.21-.61,6.31,6.31,0,0,0-2.74-.18,12.59,12.59,0,0,0-2.72.73,6,6,0,0,0-2.12,1.7,12.76,12.76,0,0,0-2,5.26,11.54,11.54,0,0,0,.93,5.58c.33.92.68,1.83.95,2.79a12.4,12.4,0,0,1,.45,3,56.33,56.33,0,0,0,.38,5.84,11.61,11.61,0,0,0,.8,2.75,5.23,5.23,0,0,0,.8,1.16,2.42,2.42,0,0,1,.65,1.48q.13,5.92.27,11.91c0,4,.16,8-.1,12a28,28,0,0,1-.65,3,9.23,9.23,0,0,0-.21,2.9,2.08,2.08,0,0,0,.48,1.22,2.45,2.45,0,0,0,1.2.57A25.86,25.86,0,0,0,158,233c1,.15,2,.27,3,.37a1.85,1.85,0,0,0,1.3-.11,8.26,8.26,0,0,0,1-1l4.09-4.5.49-.54v5.87a.23.23,0,0,0,.15.19.17.17,0,0,0,.12,0l.24-.1.54-.24c.7-.33,1.41-.68,2.09-1.07a9.76,9.76,0,0,0,3.54-3,9.13,9.13,0,0,0,.52-2.27l.42-2.43v0l0,0,.73-1.13c2.27-3.59,4.52-7.19,6.61-10.84.51-.92,1-1.84,1.47-2.78s.74-1.93,1.12-2.91c.73-2,1.54-3.9,2.36-5.81s1.52-3.83,2.28-5.77a28.36,28.36,0,0,1,2.84-5.5,14,14,0,0,1,2-2.39,16.12,16.12,0,0,1,2.43-1.88,23.39,23.39,0,0,1,5.49-2.55h0l5.18-1.09.13,0,.11.09a12.38,12.38,0,0,0,5.95,2.31,19.53,19.53,0,0,0,3.25,0c1.11,0,2.21,0,3.31.07,2.19.1,4.36.29,6.52.37a14.19,14.19,0,0,0,3.15-.14,14.38,14.38,0,0,0,1.44-.63c.27-.12.43-.21.79-.36.21-.09.41.29.35.25h0v.18l0,.2,0,.41c.42,4.29.5,8.56.74,12.75a57.59,57.59,0,0,0,.62,6.2,40.76,40.76,0,0,0,1.28,6l0,.07v0c-.27,2.93-.56,5.84-.91,8.73a86.64,86.64,0,0,1-1.34,8.56,10.42,10.42,0,0,1-.31,1,2.1,2.1,0,0,1-.29.55,3.2,3.2,0,0,1-.45.39,18.68,18.68,0,0,0-1.63,1.31,24.54,24.54,0,0,0-2.88,3,26.36,26.36,0,0,0-4.11,6.9l-.26-.35,13.75-.26-.24.17c.44-1,.91-2.07,1.43-3a9.37,9.37,0,0,1,1.85-2.68h0l2.18-1.23-.14.22c.16-5.29.32-10.53.61-15.73.07-1.29.19-2.61.31-3.88s.09-2.56.16-3.86a14.1,14.1,0,0,1,.73-3.84,30,30,0,0,1,1.69-3.46,25,25,0,0,0,1.41-3.49,14.31,14.31,0,0,0,.72-3.66c.22-2.5.44-5,.66-7.47q.68-7.44,1.32-14.67v-.13l.11-.06a61.35,61.35,0,0,1,9.13-4.83,11.68,11.68,0,0,1,5.14-.44,36.35,36.35,0,0,1,5,.9c6.52,1.56,12.77,3.89,19.2,4.32,3.23.19,6.42.44,9.57.8,1.57.18,3.13.39,4.68.66.77.14,1.54.29,2.31.5a19.49,19.49,0,0,1,2.19.82,3.47,3.47,0,0,0,2.13.29,11.33,11.33,0,0,0,2.06-.87,22.13,22.13,0,0,1,2.08-1c.73-.27,1.41-.56,2.11-.84l8.27-3.35-.11.1a48.62,48.62,0,0,1,7.74-11.18,13,13,0,0,1,2.63-2c1-.55,1.94-1,2.92-1.43,1.94-.89,3.89-1.69,5.81-2.42l.07,0,.08,0c2.25.92,4.48,1.86,6.62,2.93a23.44,23.44,0,0,1,3.1,1.81l2.76,2.2c3.63,2.9,7.23,6,9.31,10.06a21.09,21.09,0,0,1,1.18,3.15c.34,1.05.7,2.09,1.08,3.11a57.33,57.33,0,0,0,2.64,5.91c2,3.79,4.18,7.34,6.08,11a74,74,0,0,1,4.86,10.88,36.72,36.72,0,0,1,1.47,5.53,45.73,45.73,0,0,1,.53,5.53c.29,7.28,0,14.12-.33,20.47v0l0,0-5.56,6.72-.1-.21,12.71.76-.07,0a10.92,10.92,0,0,0,2.68-3.3,3.87,3.87,0,0,0,.44-1.95c-.06-.66-.19-1.33-.28-2a7.09,7.09,0,0,1,.23-3.83,5,5,0,0,1,1-1.58,1.31,1.31,0,0,1,1.7-.29l-.14.08c-.85-8.07-1.64-14.24-2.25-18.37-.3-2.07-.57-3.63-.75-4.68S391.74,204.67,391.74,204.67Z" style="fill:#263238"></path><path d="M203,182.73s-.08,0-.12,0c-.62.19-6.25,2-9.07,5.85-3,4.09-3.82,7.77-5.19,10.91s-2.45,5.72-3.54,8.86c-1,2.9-8.09,14-9.14,15.61a1.49,1.49,0,0,0-.19.45c-.1.46-.32,1.61-.62,3.71-.35,2.43-5.52,4.77-7.07,5.41a.31.31,0,0,1-.43-.29v-4.92a.18.18,0,0,0-.32-.12l-4.52,5a1.45,1.45,0,0,1-1.19.46c-1.72-.17-6.06-.65-7.44-1.3-1.74-.82-1-4.37-.31-6.68s0-22.36,0-24.41-1.09-1.36-1.9-4.23-.55-5.31-.82-8.45c-.26-3-2.23-5.81-2.32-9a4.86,4.86,0,0,1,0-.54,12.65,12.65,0,0,1,2-6.14,7,7,0,0,1,2.19-1.84c5.6-2.19,7.37.48,7.77.61s1.23-1.09,3-2.45,18.13-28.91,22.63-36.82c0,0,3.06,10.58,1.86,20.93s-4,13.52,1.59,17.5S203.74,176.7,203,182.73Z" style="fill:#263238"></path><path d="M154.35,210.1c-.39,1.27.83,2.58,2.14,2.77a6.38,6.38,0,0,0,3.78-1,8,8,0,0,0,3.85-3.42c.55-1.22.5-2.62.94-3.88.8-2.36,3.18-4,3.74-6.43a5.7,5.7,0,0,0-2.08-5.48,8.88,8.88,0,0,0-5.78-1.78,20.9,20.9,0,0,0-6,1.24,7,7,0,0,0-2.1,1,2.6,2.6,0,0,0-1.11,2,8.05,8.05,0,0,0,.76,3.23c.67,1,1.63,1.48,1.62,2.62S154.35,210.1,154.35,210.1Z" style="fill:#e0e0e0"></path><path d="M161.12,196.29c-.05.08-.48-.18-1.24-.38a5.06,5.06,0,0,0-5.41,1.79c-.49.61-.68,1.08-.77,1.05s0-.55.45-1.28a4.78,4.78,0,0,1,5.85-1.94C160.79,195.85,161.16,196.24,161.12,196.29Z" style="fill:#263238"></path><path d="M159.87,195.84a4.48,4.48,0,0,1-1.46,4.13,2.12,2.12,0,0,1-2.41-.38,3.88,3.88,0,0,1-1.36-2.45,5.65,5.65,0,0,1,3-1.68C159.54,195.09,159.87,195.84,159.87,195.84Z" style="fill:#263238"></path><path d="M166.92,184.92s.53.32,1.54.76a10.62,10.62,0,0,0,4.51.84,9.6,9.6,0,0,0,6.2-2.45,10.21,10.21,0,0,0,3.38-7.34,3.63,3.63,0,0,0-.43-2,2.3,2.3,0,0,0-1.65-.93,10.94,10.94,0,0,0-4,.31,14.31,14.31,0,0,0-6,3.24,14.08,14.08,0,0,0-2.86,3.64c-.53,1-.72,1.55-.78,1.53a1.69,1.69,0,0,1,.11-.43,7.73,7.73,0,0,1,.48-1.2,13,13,0,0,1,2.78-3.83,14.22,14.22,0,0,1,6.11-3.45,11.31,11.31,0,0,1,4.19-.36,2.87,2.87,0,0,1,2,1.17,4.13,4.13,0,0,1,.52,2.31,10.6,10.6,0,0,1-3.59,7.73,9.92,9.92,0,0,1-6.54,2.46,10.18,10.18,0,0,1-4.61-1,7.84,7.84,0,0,1-1.11-.66C167,185,166.91,184.94,166.92,184.92Z" style="fill:#455a64"></path><path d="M179.65,177a10.22,10.22,0,0,1-1.78.29,12,12,0,0,0-4,1.5,12.2,12.2,0,0,0-3.2,2.82c-.68.86-1,1.48-1.1,1.44a4.14,4.14,0,0,1,.78-1.68,10.28,10.28,0,0,1,7.46-4.47A4,4,0,0,1,179.65,177Z" style="fill:#455a64"></path><path d="M156.92,174.48a4.63,4.63,0,0,0-3.85,1.71,28.89,28.89,0,0,0-2.44,3.64c-2.31,3.53-5.77,6.11-9.15,8.63a9.4,9.4,0,0,0,7.5,0,27.55,27.55,0,0,0,6.53-4.07,14.85,14.85,0,0,0,3-2.77,5.1,5.1,0,0,0,1.12-3.86c-.24-1.35-1.53-3.26-2.9-3.3" style="fill:#e0e0e0"></path><path d="M156.77,174.46a1.24,1.24,0,0,1,.51,0,3,3,0,0,1,1.24.81,5.28,5.28,0,0,1,1.2,2,4.42,4.42,0,0,1-.23,3.09,8.24,8.24,0,0,1-2.29,3c-1,.87-2.16,1.71-3.36,2.61a23.7,23.7,0,0,1-4,2.44,11.5,11.5,0,0,1-5,1.11,8.16,8.16,0,0,1-3.48-.81l-.4-.21.36-.27a54.88,54.88,0,0,0,6.5-5.33,22,22,0,0,0,2.33-2.75c.66-.9,1.16-1.83,1.7-2.64a9.22,9.22,0,0,1,1.71-2,5.24,5.24,0,0,1,1.72-1,3.42,3.42,0,0,1,1.23-.16,1.11,1.11,0,0,1,.42.08,5.38,5.38,0,0,0-1.58.28,6.62,6.62,0,0,0-3.19,3c-.51.8-1,1.74-1.65,2.68a21.17,21.17,0,0,1-2.34,2.84,51,51,0,0,1-6.52,5.44l0-.47a7.75,7.75,0,0,0,3.24.75c3.4,0,6.33-1.72,8.7-3.42s4.72-3.24,5.59-5.3a4.17,4.17,0,0,0,.29-2.84,5.29,5.29,0,0,0-1.06-1.94A2.86,2.86,0,0,0,156.77,174.46Z" style="fill:#263238"></path><path d="M259.77,115.34c.79-5.19-2.19-10.13-5-14.54l-3.08-4.74a10.94,10.94,0,0,0-2.31-2.83c-1.78-1.4-4.19-1.58-6.44-1.7s-4.49-.21-6.42.81-3.22,3.61-2.08,5.48,3.65,2.08,4.78,3.8c1.48,2.26-.38,5.15-.66,7.84s1.09,5.21,1.87,7.79.76,5.88-1.47,7.39c-2-1-2.16-3.76-2.51-6a29.67,29.67,0,0,0-2.38-7.06,9.5,9.5,0,0,0-1.85-3.13,3.27,3.27,0,0,0-3.34-.93c-1.13.44-1.74,1.63-2.43,2.63s-1.79,2-3,1.68-1.72-2.09-1.36-3.41,1.2-2.47,1.46-3.81c.58-3.07-2.48-7.78-3.78-10.62l-14.9,8c-.11,7.15-3.06,16.34-5.28,23.14-2.34,4-1.79,19.4.51,23.4s5.33,7.78,6,12.34a24,24,0,0,0,.5,3.4,3.62,3.62,0,0,0,2.14,2.52,2.12,2.12,0,0,0,2.46-1c-.62,2.28-1.14,4.7-.35,6.91.85,2.37,3.94,4.08,6,2.61,3.13-2.25.14-7.91,2.67-10.81,1-1.18,2.72-1.54,4-2.47,3.54-2.61,3.12-9,7.2-10.69,1-.42,2.18-.42,3.22-.8,1.86-.67,3.1-2.38,4.65-3.61s4-1.9,5.36-.45a3.81,3.81,0,0,1,.55,3.57c-.33,1.21-1,2.33-1.28,3.54-.67,2.59.15,5.31,1,7.85,1.48,4.65,4.85,6.25,6.34,10.9l6.9-3.81c1.93-5.88,2.49-6.36,1.49-12.47-.65-3.94-2.48-7.57-4-11.28-2-5-3.37-10.57-1.71-15.67C254.81,124.27,259,120.4,259.77,115.34Z" style="fill:#263238"></path><path d="M355.55,98c-.63-1.64-2.68-2.28-3.57-3.79-1.88-3.18,3.5-6.27,1.24-9.2l-31.37.48c-2.65,4.33-.8,7.07-.06,9s.85,4.6-.9,5.77a3.87,3.87,0,0,1-4.62-.78,11.58,11.58,0,0,1-2.46-4.37,29,29,0,0,0-3.72-7.4,10.51,10.51,0,0,0-6.83-4.33l-20.83-.22c-4,1.52-6.7,7.39-7.11,11.64s.21,8.62-.75,12.79c-.76,3.27-2.49,6.39-2.32,9.75.24,5,4.62,9.39,3.65,14.27-.58,2.89-3,5.15-3.65,8-.58,2.38.08,4.87.73,7.24,1,3.59,2.61,7.81,6.27,8.52s7-3,8.38-6.6,1.86-7.76,4.5-10.6c2.2-2.37,5.73-3.67,6.83-6.71.88-2.43-.16-5.12-1.43-7.37s-2.82-4.48-3-7.05,1.58-5.56,4.16-5.42c2,.1,3.46,2,4.12,3.85s.79,3.94,1.61,5.76c1.26,2.8,4.11,5.1,3.92,8.16-.18,2.88-3,4.81-5.5,6.2s-5.4,3.08-5.91,5.93c-.6,3.39,2.53,6.28,5.62,7.8s6.67,2.62,8.58,5.49c.87,1.3,1.29,2.85,2.1,4.18s2.22,2.53,3.76,2.32c2.34-.32,3.14-3.4,2.64-5.7s-1.72-4.56-1.3-6.88c.35-2,1.84-3.55,3-5.19s2.13-3.81,1.26-5.64c-1-2.08-4.15-3.3-3.68-5.57.42-2.11,3.62-2.41,4.53-4.35,1.19-2.53-2.32-5.06-2.07-7.83.23-2.52,3.21-3.64,5.67-4.2,2-.47,4.44-.84,6,.57s1.56,4.29,3.44,5.33,4.14-.51,5.14-2.35,1.27-4,2.41-5.8,3-3,4.45-4.56,2.26-4.12.95-5.8a10.59,10.59,0,0,0,4.53-1.33A3.62,3.62,0,0,0,355.55,98Z" style="fill:#263238"></path><path d="M240.53,233.74H227.19s-3.33,2.93-3.6,5.88l13.75-.26Z" style="fill:#263238"></path><path d="M157.15,231.53a1.42,1.42,0,0,1-1.45-.53,2,2,0,0,1-.33-1.55,3.4,3.4,0,0,1,.71-1.45c.25-.32.63-.63,1-.49a.94.94,0,0,1,.49.59,3.91,3.91,0,0,1-.33,3.5" style="fill:#455a64"></path><path d="M260.41,223.47l9.58-.55.87,1.31s-2.56,4.65-4.49,5.15-10.71.06-10.71.06Z" style="fill:#263238"></path><path d="M376.69,90.59s12.73,2,16.17,8.69-2.69,18.11,3.29,28.14,22.46,9.14,22.46,9.14v3s-23.08,2-26.65-11.08,2.11-23.68-3.64-28.45c-5-4.17-9.83-3.74-9.83-3.74Z" style="fill:#e0e0e0"></path><path d="M417.46,135.58a5.18,5.18,0,0,0-.67,6.07c1.68,2.77,5.82,3.65,6.8,6.74a13.6,13.6,0,0,0,.41,1.42,1.38,1.38,0,0,0,1.08.89c.77.06,1.27-.77,1.55-1.5a15.73,15.73,0,0,0,1.2-7.25,8.87,8.87,0,0,0-3.44-6.33,6.24,6.24,0,0,0-7-.25" style="fill:#263238"></path><path d="M330.76,235.58l14.61-.64s-.06-2.91,2.17-4.09l-11-.82Z" style="fill:#263238"></path><path d="M376.79,241.49l5.56-6.73,10.07.39s1.14,2.74.36,4a14.06,14.06,0,0,1-3.28,3l-13-.63" style="fill:#263238"></path><path d="M222.92,168.49c.1,0,.15,1,.52,2.69a19,19,0,0,0,2.52,6,19.16,19.16,0,0,0,4.41,4.79c1.33,1,2.27,1.5,2.23,1.59a8.16,8.16,0,0,1-2.47-1.27,16.92,16.92,0,0,1-7.08-11A8.12,8.12,0,0,1,222.92,168.49Z" style="fill:#263238"></path><path d="M333.85,127.14c.1,0,0,1.55.29,4a39.91,39.91,0,0,0,2.07,9.42,40.54,40.54,0,0,0,4.32,8.63c1.38,2.06,2.38,3.24,2.31,3.3s-.31-.24-.78-.76a24.41,24.41,0,0,1-1.85-2.31,34.83,34.83,0,0,1-6.47-18.25,24.65,24.65,0,0,1,0-3A4.28,4.28,0,0,1,333.85,127.14Z" style="fill:#263238"></path></g></svg>
